<svg xmlns="http://www.w3.org/2000/svg" fill="none" viewBox="0 0 365 260">
  <path fill="#0ABBC7" d="m228.5 158 44.5 25.5v51L228.5 260 184 234.5v-51l44.5-25.5Z"/>
  <path fill="#fff" d="M217.17 201.2v5.8h-1.41v-3.47l-1.3 3.47h-1.14l-1.3-3.48V207h-1.41v-5.8h1.67l1.62 4.02 1.61-4.01h1.66Zm.73 3.49c0-.47.1-.89.27-1.25a1.91 1.91 0 0 1 1.76-1.11c.33 0 .61.07.85.2.25.13.44.3.57.52v-.65h1.41v4.6h-1.4v-.65c-.15.21-.34.39-.59.52-.24.13-.52.2-.85.2-.37 0-.71-.1-1.02-.3-.3-.2-.55-.47-.73-.83a2.84 2.84 0 0 1-.27-1.25Zm3.45 0c0-.34-.1-.62-.3-.82a.94.94 0 0 0-.7-.31c-.29 0-.53.1-.72.3-.2.2-.3.48-.3.83s.1.63.3.84c.2.2.43.3.72.3.28 0 .51-.1.7-.3.2-.2.3-.48.3-.83Zm2.15 0c0-.47.1-.89.3-1.25.19-.35.46-.63.8-.82.36-.2.76-.29 1.21-.29.58 0 1.06.15 1.45.45.39.3.64.73.76 1.28h-1.5c-.13-.35-.37-.53-.73-.53-.26 0-.47.1-.62.31-.16.2-.23.48-.23.86 0 .37.07.66.23.86.15.2.36.3.62.3.36 0 .6-.18.73-.53h1.5a2.12 2.12 0 0 1-2.21 1.74c-.45 0-.85-.1-1.2-.3a2.02 2.02 0 0 1-.82-.82 2.6 2.6 0 0 1-.29-1.25Zm8.1-2.34c.54 0 .96.17 1.28.53.32.34.48.82.48 1.43V207h-1.4v-2.5c0-.3-.09-.55-.25-.72a.84.84 0 0 0-.64-.25.84.84 0 0 0-.64.25 1 1 0 0 0-.24.72v2.5h-1.41v-6.1h1.4v2.1c.15-.2.35-.36.6-.48.24-.12.52-.18.83-.18Zm3.45-.43a.88.88 0 0 1-.61-.22.73.73 0 0 1-.23-.54c0-.22.07-.4.23-.55a.86.86 0 0 1 .6-.22c.25 0 .45.08.6.22a.7.7 0 0 1 .24.55.7.7 0 0 1-.24.54.84.84 0 0 1-.6.22Zm.7.48v4.6h-1.41v-4.6h1.4Zm3.82-.05c.54 0 .97.17 1.3.53.32.34.48.82.48 1.43V207h-1.4v-2.5a1 1 0 0 0-.24-.72.84.84 0 0 0-.65-.25.84.84 0 0 0-.64.25c-.16.17-.24.41-.24.72v2.5h-1.41v-4.6h1.41v.6c.14-.2.34-.36.58-.47.24-.12.51-.18.81-.18Zm7.1 2.27-.03.42h-3.19a1 1 0 0 0 .27.66c.17.15.37.22.6.22.36 0 .6-.15.74-.45h1.5a2.06 2.06 0 0 1-1.17 1.39c-.3.14-.64.2-1.01.2-.46 0-.86-.09-1.2-.28-.36-.2-.64-.47-.83-.83-.2-.35-.3-.77-.3-1.25s.1-.9.29-1.26c.2-.35.47-.63.82-.82.35-.2.76-.29 1.22-.29.44 0 .84.1 1.18.28a2 2 0 0 1 .81.8c.2.35.3.75.3 1.21Zm-1.44-.37a.73.73 0 0 0-.25-.57.91.91 0 0 0-.62-.22.9.9 0 0 0-.6.2.93.93 0 0 0-.3.6h1.76Zm-33.45 11.66h1.84V217h-3.26v-5.8h1.41v4.71Zm6.86-1.29-.03.42h-3.2c.03.28.12.5.28.66.16.15.37.22.6.22.36 0 .6-.15.74-.45h1.5a2.06 2.06 0 0 1-1.17 1.39c-.3.14-.64.2-1.02.2-.45 0-.85-.09-1.2-.28-.35-.2-.63-.47-.83-.83-.2-.35-.3-.77-.3-1.25s.1-.9.3-1.26c.2-.35.47-.63.82-.82.35-.2.76-.29 1.21-.29.45 0 .84.1 1.19.28a2 2 0 0 1 .8.8c.2.35.3.75.3 1.21Zm-1.45-.37a.73.73 0 0 0-.25-.57.91.91 0 0 0-.61-.22.9.9 0 0 0-.6.2.93.93 0 0 0-.3.6h1.76Zm1.9.44c0-.47.1-.89.27-1.25.18-.35.43-.63.74-.82.3-.2.65-.29 1.03-.29.32 0 .6.07.85.2s.44.3.57.52v-.65h1.4v4.6h-1.4v-.65c-.14.21-.33.39-.58.52-.24.13-.53.2-.85.2-.37 0-.71-.1-1.02-.3a2.1 2.1 0 0 1-.74-.83 2.84 2.84 0 0 1-.26-1.25Zm3.46 0c0-.34-.1-.62-.3-.82a.94.94 0 0 0-.7-.31c-.29 0-.53.1-.73.3-.19.2-.28.48-.28.83s.1.63.28.84c.2.2.44.3.72.3.28 0 .52-.1.71-.3.2-.2.3-.48.3-.83Zm3.84-1.53c.17-.25.37-.45.62-.59.25-.15.52-.22.82-.22v1.49h-.38c-.36 0-.62.08-.8.23-.17.15-.26.41-.26.8V217h-1.41v-4.6h1.41v.76Zm4.92-.81c.54 0 .97.17 1.29.53.32.34.49.82.49 1.43V217h-1.4v-2.5c0-.3-.09-.55-.25-.72a.84.84 0 0 0-.64-.25.84.84 0 0 0-.64.25 1 1 0 0 0-.24.72v2.5h-1.41v-4.6h1.4v.6a1.8 1.8 0 0 1 1.4-.66Zm3.47-.43a.88.88 0 0 1-.61-.22.73.73 0 0 1-.23-.54c0-.22.07-.4.23-.55a.86.86 0 0 1 .6-.22c.25 0 .45.08.6.22a.7.7 0 0 1 .24.55.7.7 0 0 1-.24.54.84.84 0 0 1-.6.22Zm.7.48v4.6h-1.41v-4.6h1.4Zm3.83-.05c.53 0 .96.17 1.28.53.33.34.49.82.49 1.43V217h-1.4v-2.5a1 1 0 0 0-.24-.72.84.84 0 0 0-.65-.25.84.84 0 0 0-.64.25c-.16.17-.24.41-.24.72v2.5h-1.41v-4.6h1.41v.6c.14-.2.34-.36.58-.47.24-.12.51-.18.81-.18Zm4.5-.02c.32 0 .6.07.85.2s.44.3.57.52v-.65h1.4v4.6c0 .41-.08.8-.25 1.14-.16.35-.42.62-.76.82-.35.2-.77.3-1.28.3a2.6 2.6 0 0 1-1.66-.48 1.8 1.8 0 0 1-.73-1.3h1.4c.04.18.15.31.31.41.16.1.37.16.61.16.3 0 .52-.09.7-.26.17-.16.26-.43.26-.8v-.65a1.6 1.6 0 0 1-1.42.73 1.9 1.9 0 0 1-1.77-1.13 2.84 2.84 0 0 1-.26-1.25c0-.47.09-.89.26-1.25.18-.35.43-.63.74-.82.3-.2.65-.29 1.03-.29Zm1.42 2.37c0-.35-.1-.63-.3-.83a.94.94 0 0 0-.7-.31c-.29 0-.53.1-.73.3-.19.2-.29.48-.29.83s.1.63.3.84c.2.2.43.3.71.3.28 0 .52-.1.71-.3.2-.2.3-.48.3-.83Z"/>
  <path fill="#0ABBC7" d="m136.5 158 44.5 25.5v51L136.5 260 92 234.5v-51l44.5-25.5Z"/>
  <path fill="#fff" d="M111.7 206.2v5.8h-1.42v-3.47l-1.3 3.47h-1.13l-1.3-3.48V212h-1.41v-5.8h1.66l1.63 4.02 1.6-4.01h1.66Zm5.35 3.42-.03.42h-3.19a1 1 0 0 0 .27.66c.17.15.37.22.6.22.36 0 .6-.15.74-.45h1.5a2.05 2.05 0 0 1-1.17 1.39c-.3.14-.64.2-1.02.2-.45 0-.85-.09-1.2-.28-.35-.2-.63-.47-.83-.83-.2-.35-.3-.77-.3-1.25s.1-.9.3-1.26c.2-.35.47-.63.82-.82.35-.2.76-.29 1.21-.29.45 0 .85.1 1.2.28.34.19.6.45.8.8.2.35.3.75.3 1.21Zm-1.45-.37a.73.73 0 0 0-.24-.57.91.91 0 0 0-.62-.22.9.9 0 0 0-.6.2.92.92 0 0 0-.3.6h1.76Zm4.76 1.55v1.2h-.72c-.51 0-.91-.12-1.2-.37-.28-.25-.42-.66-.42-1.23v-1.83h-.57v-1.17h.56v-1.13h1.42v1.13h.92v1.17h-.92v1.85c0 .13.03.23.1.3.06.05.17.08.33.08h.5Zm.5-1.11c0-.47.1-.89.27-1.25a1.9 1.9 0 0 1 1.77-1.11c.32 0 .6.07.84.2.25.13.44.3.57.52v-.65h1.41v4.6h-1.4v-.65c-.15.21-.34.39-.59.52a1.89 1.89 0 0 1-1.87-.1 2.1 2.1 0 0 1-.73-.83 2.84 2.84 0 0 1-.27-1.25Zm3.45 0c0-.34-.1-.62-.3-.82a.94.94 0 0 0-.7-.31c-.28 0-.52.1-.72.3-.2.2-.3.48-.3.83s.1.63.3.84c.2.2.44.3.72.3.28 0 .51-.1.7-.3.2-.2.3-.48.3-.83Zm5.26-2.34c.53 0 .96.17 1.27.53.32.34.48.82.48 1.43V212h-1.4v-2.5c0-.3-.08-.55-.24-.72a.84.84 0 0 0-.64-.25.84.84 0 0 0-.65.25c-.16.17-.24.41-.24.72v2.5h-1.4v-6.1h1.4v2.1c.15-.2.34-.36.59-.48.25-.12.52-.18.83-.18Zm7.07 2.27c0 .14 0 .27-.02.42h-3.2c.03.28.12.5.28.66.16.15.36.22.6.22.35 0 .6-.15.73-.45h1.5a2.05 2.05 0 0 1-1.17 1.39c-.3.14-.64.2-1.01.2-.45 0-.85-.09-1.2-.28-.36-.2-.63-.47-.83-.83-.2-.35-.3-.77-.3-1.25s.1-.9.3-1.26c.19-.35.46-.63.82-.82.35-.2.75-.29 1.2-.29.45 0 .85.1 1.2.28a2 2 0 0 1 .8.8c.2.35.3.75.3 1.21Zm-1.44-.37a.73.73 0 0 0-.25-.57.91.91 0 0 0-.62-.22.9.9 0 0 0-.6.2.92.92 0 0 0-.3.6h1.77Zm6.73-1.85v4.6h-1.4v-.63a1.74 1.74 0 0 1-1.4.68c-.35 0-.67-.08-.94-.23a1.6 1.6 0 0 1-.62-.69c-.15-.3-.22-.64-.22-1.04v-2.7h1.4v2.5c0 .31.08.55.24.72.16.17.37.26.64.26.28 0 .5-.09.65-.26.16-.17.24-.4.24-.71v-2.5h1.41Zm2.43.76c.16-.25.37-.45.61-.59.25-.15.53-.22.83-.22v1.49h-.39c-.35 0-.61.08-.79.23-.18.15-.26.41-.26.8V212h-1.42v-4.6h1.42v.76Zm2.82-1.24a.88.88 0 0 1-.6-.22.73.73 0 0 1-.24-.54c0-.22.08-.4.23-.55a.86.86 0 0 1 .61-.22c.25 0 .44.08.6.22a.7.7 0 0 1 .24.55.7.7 0 0 1-.24.54.84.84 0 0 1-.6.22Zm.7.48v4.6h-1.4v-4.6h1.4Zm2.9 4.67c-.4 0-.76-.07-1.07-.21a1.86 1.86 0 0 1-.75-.56 1.5 1.5 0 0 1-.3-.81h1.4c.01.16.09.29.22.39.13.1.3.15.48.15a.7.7 0 0 0 .4-.1c.1-.07.16-.17.16-.28 0-.13-.07-.22-.21-.28a3.85 3.85 0 0 0-.67-.22 6.9 6.9 0 0 1-.82-.24 1.48 1.48 0 0 1-.57-.4 1.12 1.12 0 0 1-.24-.75c0-.27.07-.5.21-.72.15-.22.37-.4.65-.52a2.5 2.5 0 0 1 1.01-.19 2 2 0 0 1 1.36.43c.34.28.53.67.58 1.14h-1.3a.56.56 0 0 0-.22-.38.72.72 0 0 0-.46-.14c-.16 0-.3.03-.38.1a.3.3 0 0 0-.13.25c0 .14.07.23.2.3.15.07.37.13.66.2.34.09.62.17.84.26.21.08.4.22.56.41.16.2.25.44.25.76 0 .27-.07.52-.23.73-.15.2-.36.37-.65.5-.28.12-.6.18-.98.18Zm5.3-1.27v1.2h-.73c-.5 0-.9-.12-1.2-.37-.28-.25-.42-.66-.42-1.23v-1.83h-.56v-1.17h.56v-1.13h1.41v1.13h.93v1.17h-.93v1.85c0 .13.03.23.1.3.07.05.18.08.33.08h.5Zm1.49-3.88a.88.88 0 0 1-.61-.22.73.73 0 0 1-.23-.54c0-.22.07-.4.23-.55a.86.86 0 0 1 .6-.22c.25 0 .45.08.6.22a.7.7 0 0 1 .24.55.7.7 0 0 1-.24.54.84.84 0 0 1-.6.22Zm.7.48v4.6h-1.41v-4.6h1.41Zm.74 2.3c0-.48.1-.9.29-1.26.2-.35.47-.63.82-.82.35-.2.75-.29 1.2-.29.58 0 1.06.15 1.44.45.4.3.65.73.77 1.28h-1.5c-.13-.35-.37-.53-.73-.53-.26 0-.47.1-.62.31-.16.2-.23.48-.23.86 0 .37.07.66.23.86.15.2.36.3.62.3.36 0 .6-.18.73-.53h1.5c-.12.54-.37.97-.77 1.27-.38.31-.87.47-1.44.47-.45 0-.85-.1-1.2-.3a2.02 2.02 0 0 1-.82-.82 2.6 2.6 0 0 1-.29-1.25Zm7.15 2.37c-.4 0-.76-.07-1.07-.21a1.86 1.86 0 0 1-.75-.56 1.51 1.51 0 0 1-.3-.81h1.4c.01.16.09.29.22.39.13.1.3.15.48.15a.7.7 0 0 0 .4-.1c.1-.07.16-.17.16-.28 0-.13-.07-.22-.21-.28a3.82 3.82 0 0 0-.67-.22 6.9 6.9 0 0 1-.82-.24 1.47 1.47 0 0 1-.57-.4 1.11 1.11 0 0 1-.24-.75c0-.27.07-.5.21-.72.15-.22.37-.4.65-.52a2.5 2.5 0 0 1 1.01-.19 2 2 0 0 1 1.36.43c.34.28.53.67.58 1.14h-1.3a.56.56 0 0 0-.22-.38.72.72 0 0 0-.46-.14c-.17 0-.3.03-.38.1a.3.3 0 0 0-.13.25c0 .14.07.23.2.3.15.07.37.13.66.2.35.09.62.17.84.26.21.08.4.22.56.41.16.2.25.44.25.76 0 .27-.07.52-.23.73-.14.2-.36.37-.65.5-.28.12-.6.18-.98.18Z"/>
  <path fill="#0ABBC7" d="m274.5 79 44.5 25.5v51L274.5 181 230 155.5v-51L274.5 79Z"/>
  <path fill="#fff" d="M247.04 122.2v5.8h-1.41v-3.47l-1.3 3.47h-1.14l-1.3-3.48V128h-1.4v-5.8h1.66l1.62 4.02 1.61-4.01h1.66Zm.73 3.49c0-.47.1-.89.27-1.25a1.9 1.9 0 0 1 1.77-1.11c.32 0 .6.07.84.2.25.13.44.3.57.52v-.65h1.41v4.6h-1.4v-.65c-.15.21-.34.39-.59.52a1.89 1.89 0 0 1-1.87-.1 2.1 2.1 0 0 1-.73-.83 2.84 2.84 0 0 1-.27-1.25Zm3.45 0c0-.34-.1-.62-.3-.83a.94.94 0 0 0-.7-.3c-.28 0-.52.1-.72.3-.2.2-.3.48-.3.83s.1.63.3.84c.2.2.44.3.72.3.28 0 .51-.1.7-.3.2-.2.3-.48.3-.83Zm4.3 2.38c-.4 0-.75-.07-1.07-.21a1.86 1.86 0 0 1-.74-.56 1.51 1.51 0 0 1-.3-.81h1.39c.02.16.1.29.22.39.13.1.3.15.49.15a.7.7 0 0 0 .4-.1c.1-.07.15-.17.15-.28 0-.13-.07-.22-.2-.28a3.82 3.82 0 0 0-.67-.22 6.9 6.9 0 0 1-.83-.24 1.47 1.47 0 0 1-.57-.4 1.11 1.11 0 0 1-.24-.75c0-.27.08-.5.22-.72.15-.22.36-.4.64-.52a2.5 2.5 0 0 1 1.02-.19 2 2 0 0 1 1.36.43c.33.28.53.66.58 1.14h-1.3a.56.56 0 0 0-.22-.38.72.72 0 0 0-.46-.14c-.17 0-.3.03-.38.1a.3.3 0 0 0-.14.25c0 .13.07.23.21.3.14.07.36.13.66.2.34.09.62.17.83.26.22.08.4.22.56.41.17.2.25.44.26.76 0 .27-.08.52-.23.73-.15.2-.37.37-.65.5-.28.12-.61.18-.98.18Zm4.6 0c-.4 0-.75-.07-1.07-.21a1.86 1.86 0 0 1-.74-.56 1.51 1.51 0 0 1-.3-.81h1.39c.02.16.1.29.22.39.13.1.3.15.49.15a.7.7 0 0 0 .4-.1c.1-.07.15-.17.15-.28 0-.13-.07-.22-.2-.28a3.82 3.82 0 0 0-.67-.22 6.9 6.9 0 0 1-.83-.24 1.47 1.47 0 0 1-.57-.4 1.11 1.11 0 0 1-.24-.75c0-.27.08-.5.22-.72.15-.22.36-.4.64-.52a2.5 2.5 0 0 1 1.02-.19 2 2 0 0 1 1.36.43c.33.28.53.66.58 1.14h-1.3a.56.56 0 0 0-.22-.38.71.71 0 0 0-.46-.14c-.17 0-.3.03-.38.1a.3.3 0 0 0-.13.25c0 .13.06.23.2.3.14.07.36.13.66.2.34.09.62.17.83.26.22.08.4.22.56.41.17.2.25.44.26.76 0 .27-.08.52-.23.73-.15.2-.37.37-.65.5-.28.12-.61.18-.98.18Zm3.44-5.15a.88.88 0 0 1-.6-.22.73.73 0 0 1-.24-.54c0-.22.08-.4.23-.55a.86.86 0 0 1 .61-.22c.25 0 .44.08.6.22a.7.7 0 0 1 .24.55.7.7 0 0 1-.24.54.84.84 0 0 1-.6.22Zm.7.48v4.6h-1.4v-4.6h1.4Zm3.1 3.28 1-3.28h1.5l-1.64 4.6h-1.74l-1.63-4.6h1.51l1 3.28Zm7.43-1.06c0 .14 0 .27-.02.42h-3.2c.03.28.12.5.28.66.16.14.36.22.6.22.35 0 .6-.15.73-.45h1.5a2.05 2.05 0 0 1-1.17 1.39c-.3.14-.64.2-1.01.2-.45 0-.86-.09-1.2-.28-.36-.2-.63-.47-.83-.83-.2-.36-.3-.77-.3-1.25s.1-.9.29-1.26c.2-.35.47-.63.83-.82.35-.2.75-.29 1.2-.29.45 0 .85.1 1.2.28a2 2 0 0 1 .8.8c.2.35.3.75.3 1.21Zm-1.44-.37a.73.73 0 0 0-.25-.58.91.91 0 0 0-.62-.2.9.9 0 0 0-.6.2.92.92 0 0 0-.3.58h1.77Zm8.35-1.18a1.7 1.7 0 0 1-.94 1.6 2.5 2.5 0 0 1-1.2.25h-.87V128h-1.4v-5.8h2.28c.46 0 .85.09 1.17.25.32.16.56.38.72.66.16.28.24.6.24.96Zm-2.24.73c.27 0 .47-.06.6-.2.14-.12.2-.3.2-.53 0-.23-.06-.4-.2-.53-.13-.13-.33-.2-.6-.2h-.77v1.46h.77Zm2.7.89c0-.47.08-.89.25-1.25.19-.35.43-.63.74-.82.3-.2.65-.29 1.03-.29.32 0 .6.07.85.2s.44.3.57.52v-.65h1.41v4.6h-1.41v-.65c-.14.21-.33.39-.58.52-.24.13-.52.2-.85.2-.37 0-.71-.1-1.02-.3a2.1 2.1 0 0 1-.73-.83 2.84 2.84 0 0 1-.27-1.25Zm3.44 0c0-.34-.1-.62-.3-.83a.94.94 0 0 0-.7-.3c-.29 0-.53.1-.73.3-.19.2-.28.48-.28.83s.1.63.29.84c.2.2.43.3.71.3.28 0 .52-.1.71-.3.2-.2.3-.48.3-.83Zm3.84-1.53c.17-.25.37-.45.62-.59.25-.15.52-.22.83-.22v1.49h-.4c-.34 0-.6.08-.78.23-.18.15-.27.41-.27.8V128h-1.4v-4.6h1.4v.76Zm1.84 1.53c0-.47.09-.89.26-1.25.19-.35.43-.63.74-.82.3-.2.65-.29 1.03-.29.32 0 .6.07.85.2s.44.3.57.52v-.65h1.4v4.6h-1.4v-.65c-.14.21-.33.39-.58.52-.24.13-.52.2-.85.2-.37 0-.71-.1-1.02-.3a2.1 2.1 0 0 1-.74-.83 2.84 2.84 0 0 1-.26-1.25Zm3.45 0c0-.34-.1-.62-.3-.83a.94.94 0 0 0-.7-.3c-.29 0-.53.1-.73.3-.19.2-.29.48-.29.83s.1.63.3.84c.2.2.43.3.71.3.28 0 .52-.1.71-.3.2-.2.3-.48.3-.83Zm3.84-3.8V128h-1.41v-6.1h1.41Zm2.43 0V128h-1.4v-6.1h1.4Zm5.37 3.73-.03.42h-3.2c.03.28.12.5.28.66a.9.9 0 0 0 .6.22c.35 0 .6-.15.74-.45h1.5a2.05 2.05 0 0 1-1.17 1.39c-.3.14-.64.2-1.02.2-.45 0-.85-.09-1.2-.28-.36-.2-.63-.47-.83-.83-.2-.36-.3-.77-.3-1.25s.1-.9.3-1.26c.2-.35.47-.63.82-.82.35-.2.75-.29 1.21-.29.45 0 .84.1 1.19.28a2 2 0 0 1 .8.8c.2.35.3.75.3 1.21Zm-1.45-.37a.73.73 0 0 0-.25-.58.91.91 0 0 0-.62-.2.9.9 0 0 0-.6.2.92.92 0 0 0-.3.58h1.77Zm3.6-3.36V128h-1.41v-6.1h1.41Zm-57.93 13.2c0-.57.12-1.08.37-1.52.25-.45.59-.8 1.03-1.05a3 3 0 0 1 1.5-.38c.7 0 1.28.18 1.77.55.5.36.82.85.99 1.48h-1.56a1.25 1.25 0 0 0-.49-.55c-.2-.13-.45-.2-.72-.2-.43 0-.78.16-1.05.46-.27.3-.4.71-.4 1.22 0 .5.13.9.4 1.2.26.31.62.46 1.05.46.27 0 .51-.06.72-.19.21-.12.38-.3.5-.55h1.55c-.17.63-.5 1.12-.99 1.48-.49.36-1.07.54-1.76.54-.56 0-1.07-.12-1.51-.37a2.7 2.7 0 0 1-1.03-1.05 3.1 3.1 0 0 1-.37-1.52Zm8.61 2.98c-.45 0-.85-.1-1.22-.3a2.16 2.16 0 0 1-.85-.82 2.5 2.5 0 0 1-.3-1.25c0-.47.1-.89.31-1.25s.5-.64.86-.83c.36-.2.77-.29 1.22-.29.45 0 .86.1 1.22.29.37.2.65.47.86.83.21.36.31.78.31 1.25s-.1.89-.32 1.25c-.2.36-.5.64-.86.83-.37.19-.77.29-1.23.29Zm0-1.22c.28 0 .5-.1.69-.3.2-.2.29-.48.29-.85s-.1-.65-.28-.85a.88.88 0 0 0-.68-.3c-.27 0-.5.1-.68.3-.19.2-.28.47-.28.85 0 .37.1.65.27.85.18.2.4.3.68.3Zm9.04-3.5c.57 0 1.02.17 1.36.52.34.34.5.82.5 1.44V138h-1.4v-2.5c0-.3-.07-.53-.23-.69a.84.84 0 0 0-.65-.24.85.85 0 0 0-.65.25.95.95 0 0 0-.23.68v2.5h-1.4v-2.5c0-.3-.08-.53-.24-.69a.84.84 0 0 0-.64-.24c-.28 0-.5.08-.66.25a.95.95 0 0 0-.23.68v2.5h-1.4v-4.6h1.4v.57c.15-.19.33-.34.56-.45.24-.12.5-.17.79-.17.34 0 .65.07.92.22.28.15.5.36.65.64a1.85 1.85 0 0 1 1.55-.86Zm4.27.7c.13-.22.32-.39.57-.52.24-.13.52-.2.85-.2a1.91 1.91 0 0 1 1.75 1.11c.18.36.27.78.27 1.25s-.09.9-.27 1.25c-.17.36-.42.64-.72.84a1.93 1.93 0 0 1-1.88.09c-.25-.13-.44-.3-.57-.51v2.83h-1.41v-6.8h1.4v.66Zm2.01 1.64c0-.35-.1-.63-.3-.82a.95.95 0 0 0-.72-.31c-.28 0-.51.1-.71.3-.2.2-.3.49-.3.84s.1.63.3.83c.2.2.43.3.71.3.29 0 .52-.1.72-.3.2-.2.3-.49.3-.84Zm6.72-2.3V138h-1.41v-.63c-.14.2-.34.37-.58.5-.25.12-.52.18-.81.18a1.9 1.9 0 0 1-.94-.23 1.6 1.6 0 0 1-.62-.69c-.15-.3-.23-.64-.23-1.04v-2.7h1.4v2.5c0 .31.09.55.25.72.15.17.37.26.64.26s.5-.09.65-.26a1 1 0 0 0 .24-.71v-2.5h1.41Zm3.58 3.41v1.2h-.72c-.5 0-.9-.12-1.2-.37-.28-.25-.42-.66-.42-1.23v-1.83h-.56v-1.17h.56v-1.13h1.4v1.13h.93v1.17h-.92v1.85c0 .13.03.23.1.3.06.05.17.08.33.08h.5Zm1.5-3.88a.88.88 0 0 1-.62-.22.73.73 0 0 1-.23-.54c0-.22.08-.4.23-.55a.86.86 0 0 1 .62-.22c.24 0 .44.08.59.22a.7.7 0 0 1 .24.55.7.7 0 0 1-.24.54.84.84 0 0 1-.6.22Zm.7.48v4.6h-1.41v-4.6h1.4Zm3.82-.05c.54 0 .97.17 1.3.53.32.34.48.82.48 1.43V138h-1.4v-2.5a1 1 0 0 0-.24-.72.84.84 0 0 0-.65-.25.84.84 0 0 0-.64.25c-.16.17-.24.41-.24.72v2.5h-1.41v-4.6h1.41v.6c.14-.2.34-.36.58-.47.24-.12.51-.18.81-.18Zm4.5-.02c.33 0 .62.07.86.2s.43.3.57.52v-.65h1.4v4.6c0 .41-.08.8-.25 1.14a1.8 1.8 0 0 1-.77.82c-.34.2-.76.3-1.27.3a2.6 2.6 0 0 1-1.66-.48 1.8 1.8 0 0 1-.73-1.3h1.4c.04.18.14.31.3.41.17.1.38.16.62.16.3 0 .52-.09.7-.26.17-.16.26-.43.26-.8v-.65a1.6 1.6 0 0 1-1.42.73 1.9 1.9 0 0 1-1.77-1.13 2.84 2.84 0 0 1-.26-1.25c0-.47.09-.89.26-1.25.18-.35.43-.63.74-.82.3-.2.65-.29 1.03-.29Zm1.43 2.37c0-.35-.1-.63-.3-.83a.94.94 0 0 0-.71-.31c-.28 0-.52.1-.72.3-.2.2-.29.48-.29.83s.1.63.3.84c.19.2.43.3.71.3a.9.9 0 0 0 .7-.3c.2-.2.3-.48.3-.83Z"/>
  <path fill="#0ABD81" d="m90.5 79 44.5 25.5v51L90.5 181 46 155.5v-51L90.5 79Z"/>
  <path fill="#fff" d="M58.9 117.2v5.8h-1.4v-5.8h1.4Zm.75 3.49c0-.47.09-.89.26-1.25.18-.35.43-.63.74-.82a1.91 1.91 0 0 1 1.85-.1c.26.13.45.3.6.51v-2.14h1.4V123h-1.4v-.66c-.13.22-.32.4-.57.53-.24.13-.53.2-.85.2a1.9 1.9 0 0 1-1.77-1.13 2.84 2.84 0 0 1-.26-1.25Zm3.45 0c0-.34-.1-.62-.3-.83a.94.94 0 0 0-.7-.3c-.29 0-.53.1-.73.3-.19.2-.29.48-.29.83s.1.63.3.84c.2.2.43.3.71.3.28 0 .52-.1.71-.3.2-.2.3-.48.3-.83Zm6.77-.07-.03.42h-3.19a1 1 0 0 0 .27.66c.17.14.37.22.6.22.36 0 .6-.15.74-.45h1.5a2.05 2.05 0 0 1-1.17 1.39c-.3.14-.64.2-1.02.2-.45 0-.85-.09-1.2-.28-.35-.2-.63-.47-.83-.83-.2-.36-.3-.77-.3-1.25s.1-.9.3-1.26c.2-.35.47-.63.82-.82.35-.2.76-.29 1.21-.29.45 0 .85.1 1.2.28.34.19.6.45.8.8.2.35.3.75.3 1.21Zm-1.45-.37a.73.73 0 0 0-.24-.58.91.91 0 0 0-.62-.2.9.9 0 0 0-.6.2.92.92 0 0 0-.3.58h1.76Zm5-1.9c.54 0 .97.17 1.28.53.33.34.5.82.5 1.43V123h-1.41v-2.5c0-.3-.08-.55-.24-.72a.84.84 0 0 0-.64-.25.84.84 0 0 0-.65.25c-.16.17-.24.41-.24.72v2.5h-1.4v-4.6h1.4v.6c.15-.2.34-.36.58-.47.24-.12.51-.18.82-.18Zm5.32 3.45v1.2h-.72c-.51 0-.91-.12-1.2-.37-.28-.25-.43-.66-.43-1.23v-1.83h-.56v-1.17h.56v-1.13h1.41v1.13h.93v1.17h-.93v1.85c0 .13.04.23.1.3.07.05.18.08.33.08h.5Zm1.5-3.88a.88.88 0 0 1-.62-.22.73.73 0 0 1-.23-.54c0-.22.08-.4.23-.55a.86.86 0 0 1 .61-.22c.24 0 .44.08.6.22a.7.7 0 0 1 .24.55.7.7 0 0 1-.24.54.84.84 0 0 1-.6.22Zm.7.48v4.6h-1.42v-4.6h1.41Zm3.33 1.17h-.76V123H82.1v-3.43h-.52v-1.17h.52v-.14c0-.56.16-1 .48-1.28.33-.3.8-.45 1.43-.45l.23.01v1.2c-.27-.02-.46.02-.57.11-.1.1-.16.26-.16.5v.05h.76v1.17Zm1.37-1.65a.88.88 0 0 1-.61-.22.73.73 0 0 1-.23-.54c0-.22.07-.4.23-.55a.86.86 0 0 1 .6-.22c.25 0 .45.08.6.22a.7.7 0 0 1 .24.55.7.7 0 0 1-.24.54.84.84 0 0 1-.6.22Zm.7.48v4.6h-1.41v-4.6h1.4Zm.74 2.3c0-.48.1-.9.29-1.26.2-.35.47-.63.82-.82.35-.2.75-.29 1.2-.29.58 0 1.06.15 1.45.45.39.3.64.73.76 1.28h-1.5c-.13-.35-.37-.53-.73-.53-.26 0-.47.1-.62.31-.16.2-.23.48-.23.86 0 .37.07.66.23.86.15.2.36.3.62.3.36 0 .6-.17.73-.53h1.5a2.12 2.12 0 0 1-2.21 1.74c-.45 0-.85-.1-1.2-.3a2.02 2.02 0 0 1-.82-.82 2.6 2.6 0 0 1-.29-1.25Zm5-.01c0-.47.08-.89.26-1.25a1.91 1.91 0 0 1 1.77-1.11c.32 0 .6.07.85.2.24.13.43.3.57.52v-.65h1.4v4.6h-1.4v-.65c-.14.21-.34.39-.58.52-.24.13-.53.2-.85.2-.38 0-.72-.1-1.03-.3a2.1 2.1 0 0 1-.73-.83 2.84 2.84 0 0 1-.26-1.25Zm3.45 0c0-.34-.1-.62-.3-.83a.94.94 0 0 0-.71-.3c-.28 0-.52.1-.72.3-.2.2-.29.48-.29.83s.1.63.3.84c.19.2.43.3.7.3.29 0 .53-.1.72-.3.2-.2.3-.48.3-.83Zm5 1.11v1.2h-.73c-.5 0-.9-.12-1.2-.37-.28-.25-.42-.66-.42-1.23v-1.83h-.56v-1.17h.56v-1.13h1.41v1.13h.92v1.17h-.92v1.85c0 .13.03.23.1.3.06.05.17.08.33.08h.5Zm1.49-3.88a.88.88 0 0 1-.61-.22.73.73 0 0 1-.23-.54c0-.22.07-.4.23-.55a.86.86 0 0 1 .6-.22c.25 0 .45.08.6.22a.7.7 0 0 1 .24.55.7.7 0 0 1-.24.54.84.84 0 0 1-.6.22Zm.7.48v4.6h-1.41v-4.6h1.4Zm3.12 4.67c-.45 0-.86-.1-1.23-.3a2.07 2.07 0 0 1-.84-.82c-.2-.36-.31-.77-.31-1.25s.1-.89.31-1.25.5-.64.86-.83c.37-.2.77-.29 1.22-.29.45 0 .86.1 1.22.29.37.2.65.47.86.83.21.36.31.77.31 1.25 0 .47-.1.89-.32 1.25-.2.36-.5.63-.86.83-.37.19-.77.29-1.22.29Zm0-1.22c.27 0 .5-.1.68-.3.2-.2.29-.48.29-.85s-.1-.65-.28-.85a.88.88 0 0 0-.68-.3.9.9 0 0 0-.68.3c-.18.2-.27.47-.27.85 0 .37.08.65.26.85.18.2.4.3.68.3Zm5.96-3.5c.54 0 .97.17 1.29.53.32.34.48.82.48 1.43V123h-1.4v-2.5c0-.3-.08-.55-.24-.72a.84.84 0 0 0-.64-.25.84.84 0 0 0-.65.25 1 1 0 0 0-.23.72v2.5h-1.42v-4.6h1.42v.6c.14-.2.33-.36.57-.47.24-.12.52-.18.82-.18Zm6.6 4.72c-.45 0-.86-.1-1.22-.3a2.04 2.04 0 0 1-.85-.82 2.5 2.5 0 0 1-.3-1.25c0-.48.1-.89.3-1.25.21-.36.5-.64.86-.83.37-.2.77-.29 1.22-.29.45 0 .86.1 1.22.29.37.2.65.47.86.83.21.36.32.77.32 1.25 0 .47-.11.89-.33 1.25-.2.36-.5.63-.86.83-.37.19-.77.29-1.22.29Zm0-1.22c.27 0 .5-.1.68-.3.2-.2.29-.48.29-.85s-.1-.65-.28-.85a.88.88 0 0 0-.68-.3c-.27 0-.5.1-.68.3-.18.2-.27.47-.27.85 0 .37.08.65.26.85.18.2.4.3.68.3Zm5.46-2.28h-.75V123h-1.42v-3.43h-.5v-1.17h.5v-.14c0-.56.17-1 .5-1.28.32-.3.8-.45 1.42-.45l.23.01v1.2c-.27-.02-.46.02-.57.11-.11.1-.16.26-.16.5v.05h.75v1.17Zm-57.3 7.64v1.13h-1.53V133h-1.41v-4.66h-1.54v-1.13h4.48Zm3.54 1.14c.53 0 .95.17 1.27.53.32.34.48.82.48 1.43V133h-1.4v-2.5c0-.3-.08-.55-.24-.72a.84.84 0 0 0-.64-.25.84.84 0 0 0-.65.25c-.16.17-.24.41-.24.72v2.5h-1.4v-6.1h1.4v2.1c.15-.2.34-.36.59-.48.25-.12.52-.18.83-.18Zm7.07 2.27c0 .14 0 .27-.02.42h-3.2c.03.28.12.5.28.66.16.15.36.22.6.22.35 0 .6-.15.73-.45h1.5a2.06 2.06 0 0 1-1.17 1.39c-.3.14-.64.2-1.01.2-.45 0-.85-.09-1.2-.28-.36-.2-.63-.47-.83-.83-.2-.35-.3-.77-.3-1.25s.1-.9.29-1.26c.2-.35.47-.63.82-.82.36-.2.76-.29 1.22-.29.44 0 .84.1 1.19.28.34.19.61.45.8.8.2.35.3.75.3 1.21Zm-1.44-.37a.73.73 0 0 0-.25-.57.91.91 0 0 0-.62-.22.9.9 0 0 0-.6.2.92.92 0 0 0-.3.6h1.77Zm6.73-1.85v4.6h-1.41v-.63c-.14.2-.34.37-.59.5-.24.12-.5.18-.8.18a1.9 1.9 0 0 1-.94-.23 1.6 1.6 0 0 1-.62-.69c-.15-.3-.23-.64-.23-1.04v-2.7h1.4v2.5c0 .31.09.55.25.72.16.17.37.26.64.26s.5-.09.65-.26c.16-.17.24-.4.24-.71v-2.5h1.41Zm2.43.76c.16-.25.37-.45.61-.59.25-.15.53-.22.83-.22v1.49h-.39c-.35 0-.61.08-.8.23-.17.15-.25.41-.25.8V133h-1.42v-4.6h1.42v.76Zm1.83 1.53c0-.47.1-.89.27-1.25a1.91 1.91 0 0 1 1.77-1.11c.32 0 .6.07.84.2.25.13.44.3.57.52v-.65h1.41v4.6h-1.4v-.65c-.15.21-.34.39-.59.52-.24.13-.52.2-.85.2-.37 0-.71-.1-1.02-.3a2.1 2.1 0 0 1-.73-.83 2.84 2.84 0 0 1-.27-1.25Zm3.45 0c0-.34-.1-.62-.3-.82a.94.94 0 0 0-.7-.31c-.29 0-.52.1-.72.3-.2.2-.3.48-.3.83s.1.63.3.84c.2.2.43.3.71.3.29 0 .52-.1.71-.3.2-.2.3-.48.3-.83Zm3.84-1.64c.14-.22.33-.39.57-.52.24-.13.53-.2.85-.2a1.91 1.91 0 0 1 1.76 1.11c.18.36.27.78.27 1.25s-.09.9-.27 1.25a1.9 1.9 0 0 1-1.76 1.12 1.7 1.7 0 0 1-1.42-.7v2.83h-1.4v-6.8H94v.66Zm2.02 1.64c0-.35-.1-.63-.3-.82a.95.95 0 0 0-.72-.31c-.28 0-.52.1-.72.3-.19.2-.28.49-.28.84s.1.63.28.83c.2.2.44.3.72.3.28 0 .52-.1.72-.3.2-.2.3-.49.3-.84Zm6.51-.07c0 .14 0 .27-.02.42h-3.2c.03.28.12.5.28.66.16.15.36.22.6.22.35 0 .6-.15.73-.45h1.5a2.06 2.06 0 0 1-1.17 1.39c-.3.14-.64.2-1.01.2-.45 0-.85-.09-1.2-.28-.36-.2-.63-.47-.83-.83-.2-.35-.3-.77-.3-1.25s.1-.9.29-1.26c.2-.35.47-.63.83-.82.35-.2.75-.29 1.2-.29.45 0 .85.1 1.2.28a2 2 0 0 1 .8.8c.2.35.3.75.3 1.21Zm-1.44-.37a.73.73 0 0 0-.25-.57.91.91 0 0 0-.62-.22.9.9 0 0 0-.6.2.92.92 0 0 0-.3.6h1.77Zm6.73-1.85v4.6h-1.4v-.63a1.74 1.74 0 0 1-1.4.68 1.61 1.61 0 0 1-1.56-.92c-.15-.3-.22-.64-.22-1.04v-2.7h1.4v2.5c0 .31.08.55.24.72.16.17.37.26.64.26.28 0 .5-.09.65-.26.16-.17.24-.4.24-.71v-2.5h1.41Zm3.58 3.4v1.2h-.72c-.5 0-.9-.12-1.2-.37-.28-.25-.42-.66-.42-1.23v-1.83h-.56v-1.17h.56v-1.13h1.4v1.13h.93v1.17h-.92v1.85c0 .13.03.23.1.3.06.05.17.08.33.08h.5Zm1.5-3.88a.88.88 0 0 1-.61-.22.73.73 0 0 1-.24-.54c0-.22.08-.4.23-.55a.86.86 0 0 1 .62-.22c.24 0 .44.08.59.22a.7.7 0 0 1 .24.55.7.7 0 0 1-.24.54.84.84 0 0 1-.6.22Zm.7.48v4.6h-1.41v-4.6h1.4Zm.74 2.3c0-.48.1-.9.29-1.26.2-.35.47-.63.81-.82.36-.2.76-.29 1.2-.29.59 0 1.07.15 1.45.45.4.3.65.73.77 1.28h-1.5c-.13-.35-.37-.53-.74-.53-.25 0-.46.1-.61.31-.16.2-.23.48-.23.86 0 .37.07.66.23.86.15.2.36.3.61.3.37 0 .61-.18.74-.53h1.5c-.12.54-.38.97-.77 1.27-.39.31-.87.47-1.44.47-.45 0-.85-.1-1.2-.3a2.02 2.02 0 0 1-.82-.82 2.6 2.6 0 0 1-.3-1.25Zm-35.5 6.5v1.14h-1.53V143h-1.4v-4.66h-1.54v-1.13h4.48Zm.44 3.49c0-.47.08-.89.26-1.25a1.91 1.91 0 0 1 1.77-1.11c.32 0 .6.07.85.2.24.13.43.3.56.52v-.65h1.42v4.6h-1.42v-.65c-.13.21-.33.39-.57.52-.24.13-.53.2-.85.2-.38 0-.72-.1-1.03-.3a2.1 2.1 0 0 1-.73-.83 2.84 2.84 0 0 1-.26-1.25Zm3.44 0c0-.34-.1-.62-.3-.82a.94.94 0 0 0-.7-.31c-.28 0-.52.1-.72.3-.2.2-.29.48-.29.83s.1.63.3.84c.19.2.43.3.7.3.29 0 .53-.1.72-.3.2-.2.3-.48.3-.83Zm3.85-1.53a1.75 1.75 0 0 1 1.44-.81v1.49h-.39c-.35 0-.61.08-.79.23-.17.15-.26.41-.26.8V143h-1.41v-4.6h1.4v.76Zm3.86-.83c.33 0 .61.07.85.2.25.13.44.3.57.52v-.65h1.41v4.6c0 .41-.08.8-.25 1.14-.17.35-.42.62-.77.82-.34.2-.77.3-1.28.3-.68 0-1.23-.15-1.66-.48a1.8 1.8 0 0 1-.72-1.3h1.4c.04.18.14.31.3.41.17.1.37.16.62.16.29 0 .52-.09.69-.26.18-.16.26-.43.26-.8v-.65a1.6 1.6 0 0 1-1.42.73 1.9 1.9 0 0 1-1.76-1.13 2.84 2.84 0 0 1-.27-1.25c0-.47.1-.89.27-1.25a1.91 1.91 0 0 1 1.77-1.11Zm1.42 2.37c0-.35-.1-.63-.3-.83a.94.94 0 0 0-.7-.31c-.28 0-.52.1-.72.3-.2.2-.29.48-.29.83s.1.63.29.84c.2.2.44.3.72.3.28 0 .51-.1.7-.3.2-.2.3-.48.3-.83Zm6.77-.08c0 .14 0 .27-.02.42h-3.2c.03.28.12.5.28.66.16.15.36.22.6.22.35 0 .6-.15.74-.45h1.5a2.06 2.06 0 0 1-1.17 1.39c-.3.14-.65.2-1.02.2-.45 0-.85-.09-1.2-.28-.36-.2-.63-.47-.83-.83-.2-.35-.3-.77-.3-1.25s.1-.9.3-1.26c.2-.35.47-.63.82-.82.35-.2.75-.29 1.21-.29.45 0 .84.1 1.19.28.35.19.61.45.8.8.2.35.3.75.3 1.21Zm-1.44-.37a.73.73 0 0 0-.25-.57.91.91 0 0 0-.62-.22.9.9 0 0 0-.6.2.92.92 0 0 0-.3.6h1.77Zm4.75 1.55v1.2h-.71c-.52 0-.91-.12-1.2-.37-.29-.25-.43-.66-.43-1.23v-1.83h-.56v-1.17h.56v-1.13h1.41v1.13h.93v1.17H101v1.85c0 .13.03.23.1.3.07.05.18.08.33.08h.5Zm2.66 1.27c-.4 0-.76-.07-1.07-.21a1.86 1.86 0 0 1-.74-.56 1.5 1.5 0 0 1-.3-.81h1.39c.01.16.09.29.22.39.13.1.3.15.49.15a.7.7 0 0 0 .4-.1c.1-.07.15-.17.15-.28 0-.13-.07-.22-.2-.28a3.86 3.86 0 0 0-.68-.22 6.9 6.9 0 0 1-.82-.24 1.51 1.51 0 0 1-.57-.4 1.12 1.12 0 0 1-.24-.75c0-.27.07-.5.22-.72.14-.22.36-.4.64-.52a2.5 2.5 0 0 1 1.01-.19 2 2 0 0 1 1.36.43c.34.28.53.67.58 1.14h-1.3a.56.56 0 0 0-.22-.38.71.71 0 0 0-.46-.14.61.61 0 0 0-.38.1.3.3 0 0 0-.13.25c0 .14.07.23.2.3.15.07.37.13.67.2.34.09.62.17.83.26.21.08.4.22.56.41.17.2.25.44.26.76 0 .27-.08.52-.23.73-.15.2-.37.37-.66.5-.28.12-.6.18-.98.18Z"/>
  <path fill="#0ABD81" d="M228.5 0 273 25.5v51L228.5 102 184 76.5v-51L228.5 0Z"/>
  <path fill="#fff" d="M214.8 43.2v1.14h-2.36v1.22h1.77v1.1h-1.77V49h-1.41v-5.8h3.77Zm2.84 5.87c-.45 0-.86-.1-1.22-.3a2.1 2.1 0 0 1-.85-.82c-.2-.36-.31-.77-.31-1.25 0-.47.1-.89.31-1.25s.5-.64.86-.83c.36-.2.77-.29 1.22-.29.45 0 .86.1 1.22.29.37.2.65.47.86.83.21.36.31.78.31 1.25s-.1.89-.32 1.25c-.2.36-.5.63-.86.83-.37.19-.77.29-1.22.29Zm0-1.23c.27 0 .5-.1.68-.3.2-.19.29-.47.29-.84s-.1-.65-.28-.85a.88.88 0 0 0-.68-.3.9.9 0 0 0-.68.3c-.18.2-.27.47-.27.85 0 .37.08.65.26.85.18.2.4.3.68.3Zm4.56-2.68c.17-.25.38-.45.62-.59.25-.15.53-.22.83-.22v1.49h-.39c-.35 0-.62.08-.8.23-.17.15-.26.41-.26.8V49h-1.4v-4.6h1.4v.76Zm6.46 1.46c0 .14 0 .27-.02.42h-3.2c.03.28.12.5.28.66.16.14.36.22.6.22.35 0 .6-.15.73-.45h1.5c-.07.3-.21.58-.42.82-.2.24-.44.43-.75.57-.3.14-.64.2-1.01.2-.45 0-.85-.09-1.2-.28-.36-.2-.63-.47-.83-.83-.2-.36-.3-.77-.3-1.25s.1-.9.3-1.26c.19-.35.46-.63.82-.82.35-.2.75-.29 1.2-.29.45 0 .85.1 1.2.28.34.19.61.45.8.8.2.35.3.75.3 1.21Zm-1.44-.37a.72.72 0 0 0-.25-.57.91.91 0 0 0-.62-.22.91.91 0 0 0-.6.2.92.92 0 0 0-.3.6h1.77Zm5-1.9c.53 0 .96.17 1.28.52.32.35.49.83.49 1.44V49h-1.4v-2.5a1 1 0 0 0-.25-.72.84.84 0 0 0-.64-.25.84.84 0 0 0-.64.25c-.16.17-.24.41-.24.72V49h-1.41v-4.6h1.4v.6a1.8 1.8 0 0 1 1.4-.66Zm4.62 4.72c-.4 0-.76-.07-1.07-.21a1.85 1.85 0 0 1-.75-.56 1.51 1.51 0 0 1-.3-.81h1.4c0 .16.08.29.22.39.13.1.29.15.48.15a.7.7 0 0 0 .4-.1c.1-.07.15-.16.15-.27 0-.14-.06-.23-.2-.3a3.8 3.8 0 0 0-.67-.2 6.8 6.8 0 0 1-.82-.25 1.48 1.48 0 0 1-.57-.4 1.12 1.12 0 0 1-.24-.75c0-.27.07-.5.21-.72.15-.22.36-.4.64-.52a2.5 2.5 0 0 1 1.02-.19 2 2 0 0 1 1.36.43c.34.29.53.66.58 1.14h-1.3a.56.56 0 0 0-.22-.38.71.71 0 0 0-.46-.14c-.17 0-.3.03-.38.1a.3.3 0 0 0-.13.25c0 .14.06.23.2.3.15.07.37.13.66.2.34.09.62.17.84.26.21.08.4.22.56.41.16.2.25.44.25.76 0 .27-.07.52-.23.73-.15.2-.36.37-.65.5-.28.12-.6.18-.98.18Zm3.44-5.15a.88.88 0 0 1-.62-.22.73.73 0 0 1-.23-.54c0-.22.08-.4.23-.55a.86.86 0 0 1 .62-.22c.24 0 .44.08.59.22a.7.7 0 0 1 .24.55.7.7 0 0 1-.24.54.84.84 0 0 1-.6.22Zm.7.48V49h-1.41v-4.6h1.4Zm.74 2.3c0-.48.1-.9.29-1.26.2-.35.47-.63.81-.82.36-.2.76-.29 1.2-.29.59 0 1.07.15 1.45.45.4.3.65.73.77 1.28h-1.5c-.13-.35-.37-.53-.74-.53-.25 0-.46.1-.62.31-.15.2-.23.48-.23.86 0 .37.08.66.23.86.16.2.37.3.62.3.37 0 .61-.17.74-.53h1.5c-.12.54-.38.97-.77 1.27-.39.31-.87.47-1.44.47-.45 0-.85-.1-1.2-.3a1.96 1.96 0 0 1-.82-.82c-.2-.36-.3-.77-.3-1.25Zm-27.56 8.34a.96.96 0 0 0-.45-.44 1.5 1.5 0 0 0-.69-.15c-.45 0-.82.15-1.1.45-.27.3-.4.7-.4 1.2 0 .53.13.95.42 1.25.3.3.7.45 1.2.45.34 0 .64-.1.87-.27.24-.17.42-.43.53-.76h-1.79v-1.04h3.07v1.31a2.77 2.77 0 0 1-1.48 1.72c-.4.19-.83.28-1.31.28a3.1 3.1 0 0 1-1.53-.37c-.45-.25-.8-.6-1.05-1.05a3.1 3.1 0 0 1-.37-1.52c0-.58.12-1.08.37-1.53.25-.45.6-.8 1.05-1.05.44-.25.95-.38 1.52-.38.7 0 1.28.17 1.75.5.48.34.8.8.95 1.4h-1.56Zm6.78 1.58c0 .14 0 .27-.03.42h-3.19c.02.28.12.5.27.66.17.14.37.22.6.22.36 0 .6-.15.74-.45h1.5a2.05 2.05 0 0 1-1.17 1.39c-.3.14-.64.2-1.01.2-.46 0-.86-.09-1.2-.28-.36-.2-.63-.47-.83-.83-.2-.36-.3-.77-.3-1.25s.1-.9.29-1.26c.2-.35.47-.63.82-.82.35-.2.76-.29 1.22-.29.44 0 .84.1 1.18.28.35.19.62.45.81.8.2.35.3.75.3 1.21Zm-1.44-.37a.73.73 0 0 0-.25-.57.91.91 0 0 0-.62-.22.91.91 0 0 0-.6.2.93.93 0 0 0-.3.6h1.77Zm4.99-1.9c.54 0 .97.17 1.29.52.32.35.48.83.48 1.44V59h-1.4v-2.5c0-.3-.08-.55-.24-.72a.84.84 0 0 0-.64-.25.84.84 0 0 0-.65.25 1 1 0 0 0-.24.72V59h-1.4v-4.6h1.4v.6c.15-.2.34-.36.58-.47.24-.12.52-.18.82-.18Zm7.1 2.27-.03.42h-3.2c.03.28.12.5.28.66.16.14.36.22.6.22.35 0 .6-.15.73-.45h1.5a2.05 2.05 0 0 1-1.17 1.39c-.3.14-.64.2-1.01.2-.45 0-.85-.09-1.2-.28-.36-.2-.63-.47-.83-.83-.2-.36-.3-.77-.3-1.25s.1-.9.3-1.26c.19-.35.46-.63.82-.82.35-.2.75-.29 1.2-.29.46 0 .85.1 1.2.28.34.19.61.45.8.8.2.35.3.75.3 1.21Zm-1.45-.37a.73.73 0 0 0-.25-.57.91.91 0 0 0-.62-.22.91.91 0 0 0-.6.2.93.93 0 0 0-.3.6h1.77Zm4.75 1.55V59h-.71c-.52 0-.92-.12-1.2-.37-.29-.25-.43-.66-.43-1.23v-1.83h-.56V54.4h.56v-1.13h1.41v1.13h.92v1.17h-.92v1.85c0 .13.03.23.1.3.06.05.18.08.33.08h.5Zm1.5-3.88a.88.88 0 0 1-.61-.22.73.73 0 0 1-.23-.54c0-.22.07-.4.23-.55a.86.86 0 0 1 .6-.22c.25 0 .45.08.6.22a.7.7 0 0 1 .24.55.7.7 0 0 1-.24.54.84.84 0 0 1-.6.22Zm.7.48V59h-1.41v-4.6h1.4Zm.74 2.3c0-.48.1-.9.29-1.26.2-.35.47-.63.82-.82.35-.2.75-.29 1.2-.29.58 0 1.06.15 1.45.45.38.3.64.73.76 1.28h-1.5c-.13-.35-.37-.53-.73-.53-.26 0-.47.1-.62.31-.16.2-.23.48-.23.86 0 .37.07.66.23.86.15.2.36.3.62.3.36 0 .6-.17.73-.53h1.5c-.12.54-.38.97-.76 1.27-.4.31-.88.47-1.45.47-.45 0-.85-.1-1.2-.3a2.02 2.02 0 0 1-.82-.82 2.6 2.6 0 0 1-.29-1.25Zm7.15 2.37c-.4 0-.76-.07-1.07-.21a1.85 1.85 0 0 1-.75-.56 1.51 1.51 0 0 1-.3-.81h1.4a.5.5 0 0 0 .22.39c.13.1.29.15.48.15a.7.7 0 0 0 .4-.1c.1-.07.16-.16.16-.27 0-.14-.07-.23-.21-.3a3.8 3.8 0 0 0-.67-.2 6.8 6.8 0 0 1-.82-.25 1.48 1.48 0 0 1-.57-.4 1.12 1.12 0 0 1-.24-.75c0-.27.07-.5.21-.72.15-.22.37-.4.65-.52a2.5 2.5 0 0 1 1.01-.19c.58 0 1.03.14 1.36.43.34.29.53.66.58 1.14h-1.3a.56.56 0 0 0-.22-.38.71.71 0 0 0-.46-.14c-.17 0-.3.03-.38.1a.3.3 0 0 0-.13.25c0 .14.07.23.2.3.15.07.37.13.66.2.34.09.62.17.84.26.21.08.4.22.56.41.16.2.25.44.25.76 0 .27-.07.52-.23.73-.15.2-.36.37-.65.5-.28.12-.6.18-.98.18Z"/>
  <path fill="#0ABD81" d="M136.5 0 181 25.5v51L136.5 102 92 76.5v-51L136.5 0Z"/>
  <path fill="#fff" d="M117.62 49.06c-.43 0-.8-.07-1.14-.2-.34-.15-.6-.35-.81-.62-.2-.27-.3-.6-.31-.97h1.5c.02.21.1.38.22.5.13.1.3.16.5.16a.8.8 0 0 0 .49-.14.5.5 0 0 0 .18-.4.47.47 0 0 0-.15-.36 1.1 1.1 0 0 0-.35-.23 5.44 5.44 0 0 0-.6-.2 6.54 6.54 0 0 1-.91-.36 1.7 1.7 0 0 1-.61-.5 1.42 1.42 0 0 1-.26-.89c0-.54.2-.96.59-1.26.39-.31.9-.46 1.52-.46.64 0 1.16.15 1.55.46.39.3.6.72.62 1.27h-1.52a.58.58 0 0 0-.2-.44.71.71 0 0 0-.5-.16.6.6 0 0 0-.4.14c-.11.08-.17.21-.17.38 0 .2.1.34.27.44.18.1.45.22.82.34.38.13.68.25.91.36.24.12.44.29.61.5.17.23.26.5.26.86a1.73 1.73 0 0 1-.98 1.54c-.32.16-.7.24-1.13.24Zm5.54-1.26V49h-.72c-.5 0-.9-.12-1.2-.37-.28-.25-.42-.66-.42-1.23v-1.83h-.56V44.4h.56v-1.13h1.41v1.13h.92v1.17h-.92v1.85c0 .13.03.23.1.3.06.05.17.08.33.08h.5Zm2.2-2.64a1.75 1.75 0 0 1 1.44-.81v1.49h-.39c-.35 0-.61.08-.79.23-.17.15-.26.41-.26.8V49h-1.41v-4.6h1.4v.76Zm6.66-.76V49h-1.4v-.63a1.74 1.74 0 0 1-1.4.68c-.35 0-.67-.08-.94-.23a1.6 1.6 0 0 1-.62-.69 2.3 2.3 0 0 1-.22-1.04v-2.7h1.4v2.5c0 .31.08.55.24.72.16.17.37.26.64.26.28 0 .5-.09.65-.26a1 1 0 0 0 .24-.71v-2.5h1.41Zm.73 2.3c0-.48.1-.9.3-1.26.2-.35.46-.63.81-.82.35-.2.75-.29 1.2-.29.58 0 1.06.15 1.45.45.39.3.65.73.77 1.28h-1.5c-.13-.35-.38-.53-.74-.53-.26 0-.46.1-.62.31-.15.2-.23.48-.23.86 0 .37.08.66.23.86.16.2.36.3.62.3.36 0 .6-.17.74-.53h1.5c-.13.54-.38.97-.77 1.27-.4.31-.87.47-1.44.47-.46 0-.86-.1-1.2-.3a1.99 1.99 0 0 1-.83-.82 2.6 2.6 0 0 1-.28-1.25Zm7.85 1.1V49h-.72c-.51 0-.91-.12-1.2-.37-.28-.25-.43-.66-.43-1.23v-1.83h-.56V44.4h.56v-1.13h1.41v1.13h.93v1.17h-.93v1.85c0 .13.04.23.1.3.07.05.18.08.33.08h.5Zm5.33-3.4V49h-1.41v-.63c-.15.2-.34.37-.59.5-.24.12-.51.18-.8.18a1.9 1.9 0 0 1-.94-.23 1.6 1.6 0 0 1-.63-.69 2.3 2.3 0 0 1-.22-1.04v-2.7h1.4v2.5c0 .31.08.55.24.72.16.17.38.26.65.26s.49-.09.65-.26c.16-.17.24-.4.24-.71v-2.5h1.4Zm2.42.76c.17-.25.37-.45.62-.59.25-.15.52-.22.83-.22v1.49h-.4c-.34 0-.6.08-.78.23-.18.15-.27.41-.27.8V49h-1.4v-4.6h1.4v.76Zm1.84 1.53c0-.47.09-.89.26-1.25.19-.35.43-.63.74-.82.3-.2.65-.29 1.03-.29.32 0 .6.07.85.2s.44.3.57.52v-.65h1.4V49h-1.4v-.65c-.14.21-.33.39-.58.52-.24.13-.53.2-.85.2-.37 0-.71-.1-1.02-.3-.31-.2-.56-.47-.74-.83a2.84 2.84 0 0 1-.26-1.25Zm3.45 0c0-.34-.1-.62-.3-.82a.94.94 0 0 0-.7-.31c-.29 0-.53.1-.73.3-.19.2-.28.48-.28.83s.1.63.28.84c.2.2.44.3.72.3.28 0 .52-.1.71-.3.2-.2.3-.48.3-.83Zm3.84-3.8V49h-1.41v-6.1h1.41Zm-48.25 13.14c.33.07.6.24.8.5.2.26.31.56.31.9 0 .48-.17.86-.51 1.15-.34.28-.8.42-1.41.42h-2.7v-5.8h2.6c.6 0 1.05.14 1.38.41.34.27.5.64.5 1.1a1.3 1.3 0 0 1-.97 1.32Zm-2.1-.48h.92c.23 0 .41-.05.53-.15.13-.1.2-.25.2-.45s-.07-.35-.2-.45a.82.82 0 0 0-.53-.16h-.92v1.21Zm1.04 2.31c.24 0 .42-.05.54-.16.14-.1.2-.26.2-.47 0-.2-.07-.36-.2-.47a.81.81 0 0 0-.56-.18h-1.02v1.28h1.04Zm3.7-3.94a.88.88 0 0 1-.61-.22.73.73 0 0 1-.23-.54c0-.22.07-.4.23-.55a.86.86 0 0 1 .6-.22c.25 0 .45.08.6.22a.7.7 0 0 1 .24.55.7.7 0 0 1-.24.54.84.84 0 0 1-.6.22Zm.7.48V59h-1.41v-4.6h1.4Zm3.12 4.67c-.45 0-.86-.1-1.22-.3a2.1 2.1 0 0 1-.85-.82c-.2-.36-.31-.77-.31-1.25 0-.47.1-.89.31-1.25s.5-.64.86-.83c.36-.2.77-.29 1.22-.29.45 0 .86.1 1.22.29.37.2.65.47.86.83.21.36.31.78.31 1.25s-.1.89-.32 1.25c-.2.36-.5.63-.86.83-.37.19-.77.29-1.22.29Zm0-1.23c.27 0 .5-.1.68-.3.2-.19.29-.47.29-.84s-.1-.65-.28-.85a.88.88 0 0 0-.68-.3.9.9 0 0 0-.68.3c-.18.2-.27.47-.27.85 0 .37.08.65.26.85.18.2.4.3.68.3Zm3.86-3.92a.88.88 0 0 1-.6-.22.73.73 0 0 1-.24-.54c0-.22.08-.4.23-.55a.86.86 0 0 1 .61-.22c.25 0 .44.08.6.22a.7.7 0 0 1 .24.55.7.7 0 0 1-.24.54.84.84 0 0 1-.6.22Zm.7.48V59h-1.4v-4.6h1.4Zm3.83-.05c.54 0 .97.17 1.29.52.32.35.49.83.49 1.44V59h-1.4v-2.5c0-.3-.09-.55-.25-.72a.84.84 0 0 0-.64-.25.84.84 0 0 0-.64.25 1 1 0 0 0-.24.72V59h-1.41v-4.6h1.4v.6c.15-.2.34-.36.58-.47.25-.12.52-.18.82-.18Zm5.07 1.22h-.76V59h-1.41v-3.43h-.52V54.4h.52v-.14c0-.56.16-1 .48-1.28.33-.3.8-.45 1.43-.45l.23.01v1.2c-.27-.02-.46.02-.57.11-.1.1-.16.26-.16.5v.05h.76v1.17Zm2.75 3.5c-.45 0-.85-.1-1.22-.3a2.16 2.16 0 0 1-.85-.82c-.2-.36-.3-.77-.3-1.25 0-.47.1-.89.31-1.25s.5-.64.86-.83c.36-.2.77-.29 1.22-.29.45 0 .86.1 1.22.29.37.2.65.47.86.83.2.36.31.78.31 1.25s-.1.89-.32 1.25c-.2.36-.5.63-.87.83-.36.19-.77.29-1.22.29Zm0-1.23c.27 0 .5-.1.69-.3.2-.19.29-.47.29-.84s-.1-.65-.28-.85a.88.88 0 0 0-.68-.3.9.9 0 0 0-.68.3c-.19.2-.28.47-.28.85 0 .37.1.65.27.85.18.2.4.3.67.3Zm4.57-2.68c.17-.25.37-.45.62-.59.25-.15.52-.22.83-.22v1.49h-.4c-.34 0-.6.08-.78.23-.18.15-.27.41-.27.8V59h-1.4v-4.6h1.4v.76Zm8-.81c.57 0 1.02.17 1.36.52.34.34.5.82.5 1.44V59h-1.4v-2.5c0-.3-.08-.52-.23-.68a.84.84 0 0 0-.65-.25.85.85 0 0 0-.65.25.95.95 0 0 0-.23.68V59h-1.4v-2.5c0-.3-.08-.52-.24-.68a.84.84 0 0 0-.65-.25.85.85 0 0 0-.65.25.95.95 0 0 0-.23.68V59h-1.4v-4.6h1.4v.57a1.7 1.7 0 0 1 1.35-.62c.34 0 .65.07.92.22s.49.36.64.63a1.85 1.85 0 0 1 1.56-.85Zm2.57 2.34c0-.47.1-.89.27-1.25a1.9 1.9 0 0 1 1.77-1.11c.32 0 .6.07.84.2.25.13.44.3.57.52v-.65h1.41V59h-1.4v-.65c-.15.21-.34.39-.59.52a1.9 1.9 0 0 1-1.87-.1c-.3-.2-.55-.47-.73-.83a2.84 2.84 0 0 1-.27-1.25Zm3.45 0c0-.34-.1-.62-.3-.82a.94.94 0 0 0-.7-.31c-.28 0-.52.1-.72.3-.2.2-.3.48-.3.83s.1.63.3.84c.2.2.44.3.72.3.28 0 .51-.1.7-.3.2-.2.3-.48.3-.83Zm5 1.11V59h-.72c-.51 0-.9-.12-1.2-.37-.28-.25-.42-.66-.42-1.23v-1.83h-.56V54.4h.56v-1.13h1.4v1.13h.93v1.17h-.92v1.85c0 .13.03.23.1.3.06.05.17.08.33.08h.5Zm1.5-3.88a.88.88 0 0 1-.62-.22.73.73 0 0 1-.23-.54c0-.22.08-.4.23-.55a.86.86 0 0 1 .61-.22c.25 0 .44.08.6.22a.7.7 0 0 1 .24.55.7.7 0 0 1-.24.54.84.84 0 0 1-.6.22Zm.7.48V59h-1.41v-4.6h1.4Zm.74 2.3c0-.48.1-.9.29-1.26.2-.35.47-.63.81-.82.35-.2.76-.29 1.2-.29.59 0 1.07.15 1.45.45.4.3.65.73.77 1.28h-1.5c-.13-.35-.37-.53-.74-.53-.26 0-.46.1-.62.31-.15.2-.23.48-.23.86 0 .37.08.66.23.86.16.2.36.3.62.3.37 0 .61-.17.74-.53h1.5c-.12.54-.38.97-.77 1.27-.39.31-.87.47-1.44.47-.45 0-.86-.1-1.2-.3a1.96 1.96 0 0 1-.82-.82c-.2-.36-.3-.77-.3-1.25Zm7.15 2.37c-.4 0-.76-.07-1.08-.21a1.85 1.85 0 0 1-.74-.56 1.5 1.5 0 0 1-.3-.81h1.39c.02.16.1.29.22.39.14.1.3.15.49.15a.7.7 0 0 0 .4-.1c.1-.07.15-.16.15-.27 0-.14-.07-.23-.2-.3a3.84 3.84 0 0 0-.67-.2 6.8 6.8 0 0 1-.83-.25 1.49 1.49 0 0 1-.57-.4 1.12 1.12 0 0 1-.24-.75c0-.27.08-.5.22-.72.15-.22.36-.4.64-.52a2.5 2.5 0 0 1 1.02-.19 2 2 0 0 1 1.36.43c.33.29.53.66.58 1.14h-1.3a.56.56 0 0 0-.22-.38.71.71 0 0 0-.46-.14c-.17 0-.3.03-.38.1a.3.3 0 0 0-.14.25c0 .14.07.23.21.3.14.07.36.13.66.2.34.09.62.17.83.26.22.08.4.22.56.41.17.2.25.44.26.76 0 .27-.08.52-.23.73-.15.2-.37.37-.65.5-.28.12-.61.18-.98.18Z"/>
  <path stroke="#0ABBC7" stroke-width="6" d="m279 185.24 41.5-23.78 41.5 23.78v47.52l-41.5 23.78-41.5-23.78v-47.52Z"/>
  <path fill="#0ABBC7" d="M294.07 196.83v.56h-1.1V201h-.7v-3.61h-1.1v-.56h2.9Zm2.4.81c.26 0 .48.05.68.16.2.11.35.27.46.48.12.21.18.47.18.77V201h-.68v-1.85c0-.3-.07-.52-.22-.68a.78.78 0 0 0-.6-.24.8.8 0 0 0-.62.24c-.15.16-.22.39-.22.68V201h-.69v-4.44h.69v1.52c.11-.14.26-.25.44-.33.18-.07.37-.11.58-.11Zm2.88.53a1.09 1.09 0 0 1 .98-.53v.7h-.17a.86.86 0 0 0-.61.21c-.14.14-.2.37-.2.71V201h-.69v-3.3h.69v.47Zm3.05 2.88c-.31 0-.6-.07-.85-.2a1.56 1.56 0 0 1-.6-.6 1.83 1.83 0 0 1-.2-.9c0-.34.07-.64.21-.9.15-.26.35-.46.61-.6.26-.14.54-.21.86-.21.31 0 .6.07.86.21.25.14.45.34.6.6.15.26.22.56.22.9 0 .33-.07.63-.22.89a1.6 1.6 0 0 1-.63.6 1.8 1.8 0 0 1-.86.21Zm0-.59a1 1 0 0 0 .87-.5c.1-.17.14-.38.14-.62s-.04-.44-.14-.6a.93.93 0 0 0-.36-.38 1 1 0 0 0-.5-.13 1 1 0 0 0-.49.13.9.9 0 0 0-.35.38c-.09.16-.13.36-.13.6 0 .36.09.64.27.83.18.2.41.29.69.29Zm5.38-2.77V201h-.68v-.39c-.1.14-.25.24-.43.32a1.5 1.5 0 0 1-1.25-.05 1.2 1.2 0 0 1-.49-.47 1.58 1.58 0 0 1-.17-.77v-1.95h.68v1.85c0 .3.07.52.22.68a.8.8 0 0 0 .6.23.8.8 0 0 0 .61-.23.96.96 0 0 0 .23-.68v-1.85h.68Zm2.24-.05a1.42 1.42 0 0 1 1.14.53v-.48h.7v3.36c0 .3-.07.58-.2.81a1.4 1.4 0 0 1-.56.57c-.24.13-.52.2-.86.2-.45 0-.82-.1-1.12-.32-.3-.2-.46-.49-.5-.85h.68c.05.17.16.31.33.42.17.1.37.16.61.16a.9.9 0 0 0 .67-.25c.17-.17.25-.42.25-.74v-.55a1.42 1.42 0 0 1-1.14.55 1.51 1.51 0 0 1-1.36-.82 2.05 2.05 0 0 1 0-1.78 1.52 1.52 0 0 1 1.36-.81Zm1.14 1.7c0-.22-.04-.42-.14-.59a.97.97 0 0 0-1.35-.38.97.97 0 0 0-.37.37c-.1.17-.14.36-.14.6 0 .22.05.42.14.6.1.16.22.3.37.39a.99.99 0 0 0 .98 0 .97.97 0 0 0 .37-.39c.1-.17.14-.37.14-.6Zm3.3-1.7c.25 0 .48.05.68.16.2.11.35.27.46.48.12.21.18.47.18.77V201h-.68v-1.85a1 1 0 0 0-.22-.68.78.78 0 0 0-.6-.24.8.8 0 0 0-.62.24c-.15.16-.22.39-.22.68V201h-.69v-4.44h.69v1.52c.11-.14.26-.25.44-.33.18-.07.37-.11.58-.11Zm4.55.61v1.83c0 .13.02.22.08.27.06.05.16.08.3.08h.42v.57h-.54c-.3 0-.54-.07-.7-.22-.17-.14-.25-.37-.25-.7v-1.83h-.4v-.56h.4v-.82h.69v.82h.8v.56h-.8Zm3.14-.61c.25 0 .48.05.67.16.2.11.36.27.47.48.12.21.17.47.17.77V201h-.67v-1.85c0-.3-.08-.52-.23-.68a.78.78 0 0 0-.6-.24.8.8 0 0 0-.61.24.96.96 0 0 0-.23.68V201h-.68v-4.44h.68v1.52c.12-.14.27-.25.44-.33.18-.07.38-.11.59-.11Zm5.22 1.63c0 .12-.01.23-.03.33h-2.52a.93.93 0 0 0 .94.88c.37 0 .63-.16.78-.46h.74a1.5 1.5 0 0 1-1.52 1.03c-.32 0-.6-.07-.85-.2a1.57 1.57 0 0 1-.6-.6 1.87 1.87 0 0 1-.2-.9c0-.35.07-.64.2-.9.14-.26.34-.46.58-.6.26-.14.55-.21.87-.21.31 0 .59.07.83.2.25.14.44.33.57.58.14.24.2.53.2.85Zm-.72-.22c0-.25-.1-.45-.27-.6a.97.97 0 0 0-.65-.23.87.87 0 0 0-.6.22.93.93 0 0 0-.3.61h1.82Zm3.63-1.67v1.23h1.44v.55h-1.44v1.28h1.62v.56h-2.3v-4.18h2.3v.56h-1.62Zm5.44.31-2.03 4.86h-.7l.67-1.6-1.3-3.26h.76l.93 2.52.96-2.52h.71Zm3.55 1.58c0 .12-.01.23-.03.33h-2.52c.02.27.11.48.3.64a.9.9 0 0 0 .64.24c.37 0 .63-.16.78-.46h.74a1.5 1.5 0 0 1-1.52 1.03c-.32 0-.6-.07-.85-.2a1.57 1.57 0 0 1-.6-.6 1.87 1.87 0 0 1-.2-.9c0-.35.07-.64.2-.9.14-.26.34-.46.59-.6.25-.14.53-.21.86-.21.31 0 .59.07.83.2.25.14.44.33.57.58.14.24.2.53.2.85Zm-.72-.22c0-.25-.1-.45-.27-.6a.97.97 0 0 0-.65-.23.87.87 0 0 0-.6.22.93.93 0 0 0-.3.61h1.82Zm2.59 2c-.26 0-.5-.04-.7-.13-.2-.1-.37-.23-.49-.39a.97.97 0 0 1-.19-.54h.7a.5.5 0 0 0 .2.35c.13.1.28.14.47.14.19 0 .34-.04.44-.11.11-.08.16-.17.16-.29 0-.12-.06-.21-.18-.27a3.2 3.2 0 0 0-.55-.2 5.41 5.41 0 0 1-.61-.2.85.85 0 0 1-.4-.3.78.78 0 0 1-.18-.52.8.8 0 0 1 .16-.48c.1-.14.25-.26.44-.34.2-.09.42-.13.68-.13.37 0 .67.1.9.29.23.19.36.44.37.77h-.68a.49.49 0 0 0-.18-.35.67.67 0 0 0-.44-.13.71.71 0 0 0-.41.1.32.32 0 0 0-.15.27c0 .09.04.16.1.22.06.06.14.1.23.14l.41.13a4 4 0 0 1 .59.2c.16.06.29.16.4.29.11.12.17.3.18.5 0 .2-.06.36-.16.51-.1.15-.25.26-.44.35-.2.08-.41.12-.67.12Zm5 0c-.31 0-.6-.07-.85-.2a1.56 1.56 0 0 1-.6-.6 1.83 1.83 0 0 1-.2-.9c0-.34.07-.64.21-.9.15-.26.35-.46.61-.6.26-.14.54-.21.86-.21.31 0 .6.07.86.21.25.14.45.34.6.6.15.26.22.56.22.9 0 .33-.07.63-.22.89a1.6 1.6 0 0 1-.63.6 1.8 1.8 0 0 1-.86.21Zm0-.59a1 1 0 0 0 .87-.5c.1-.17.14-.38.14-.62s-.04-.44-.14-.6a.93.93 0 0 0-.36-.38 1 1 0 0 0-.5-.13 1 1 0 0 0-.49.13.9.9 0 0 0-.35.38c-.09.16-.13.36-.13.6 0 .36.09.64.27.83.18.2.41.29.69.29Zm3.78-2.2h-.62V201h-.69v-2.75h-.39v-.56h.4v-.23c0-.38.1-.66.3-.83.2-.17.52-.26.95-.26v.57c-.21 0-.36.04-.44.12-.08.07-.13.2-.13.4v.23h.62v.56Zm-61.65 9.84c0-.58.12-1.09.37-1.53.25-.45.59-.8 1.03-1.05a3 3 0 0 1 1.51-.38c.69 0 1.28.18 1.76.55.5.36.82.85.99 1.48h-1.55a1.24 1.24 0 0 0-.5-.55c-.2-.13-.45-.2-.72-.2-.43 0-.78.16-1.05.46-.27.3-.4.71-.4 1.22 0 .5.13.9.4 1.2.27.31.62.46 1.05.46.27 0 .51-.06.72-.19.22-.12.38-.3.5-.55h1.55c-.17.63-.5 1.12-.99 1.48-.48.36-1.07.54-1.76.54-.56 0-1.06-.12-1.51-.37a2.7 2.7 0 0 1-1.03-1.05 3.08 3.08 0 0 1-.37-1.52Zm8.62 2.97c-.45 0-.86-.1-1.22-.3a2.04 2.04 0 0 1-.85-.82c-.2-.35-.3-.77-.3-1.25 0-.47.1-.89.3-1.25.21-.36.5-.64.86-.83.37-.2.77-.29 1.22-.29.45 0 .86.1 1.22.29.37.2.65.47.86.83.21.36.32.78.32 1.25s-.11.89-.33 1.25c-.2.36-.5.64-.86.83-.37.19-.77.29-1.22.29Zm0-1.22c.27 0 .5-.1.68-.3.2-.2.29-.48.29-.85s-.1-.65-.28-.85a.88.88 0 0 0-.68-.3.9.9 0 0 0-.68.3c-.18.2-.27.47-.27.85 0 .37.08.65.26.85.18.2.4.3.68.3Zm9.03-3.5c.57 0 1.02.17 1.36.52.34.34.51.82.51 1.44V211h-1.4v-2.5c0-.3-.08-.53-.24-.69a.84.84 0 0 0-.64-.24c-.28 0-.5.08-.66.25a.95.95 0 0 0-.23.68v2.5h-1.4v-2.5c0-.3-.08-.53-.24-.69a.84.84 0 0 0-.64-.24c-.28 0-.5.08-.65.25-.16.16-.24.38-.24.68v2.5h-1.4v-4.6h1.4v.57a1.73 1.73 0 0 1 1.35-.63c.35 0 .65.08.92.23.28.15.5.36.65.64a1.86 1.86 0 0 1 1.55-.86Zm4.27.7c.14-.22.32-.39.57-.52.24-.13.52-.2.85-.2a1.9 1.9 0 0 1 1.75 1.11c.19.36.28.78.28 1.25s-.1.9-.28 1.25c-.17.36-.41.64-.72.84a1.93 1.93 0 0 1-1.88.09c-.25-.13-.43-.3-.57-.51v2.83h-1.41v-6.8h1.4v.66Zm2.01 1.64c0-.35-.1-.63-.3-.82a.95.95 0 0 0-.71-.31c-.28 0-.52.1-.72.3-.2.2-.29.49-.29.84s.1.63.29.83c.2.2.44.3.72.3.28 0 .52-.1.71-.3.2-.2.3-.49.3-.84Zm6.72-2.3V211h-1.4v-.63a1.74 1.74 0 0 1-1.4.68c-.35 0-.67-.08-.94-.23a1.61 1.61 0 0 1-.62-.69c-.15-.3-.22-.64-.22-1.04v-2.7h1.4v2.5c0 .31.08.55.24.72.16.17.37.26.64.26.28 0 .5-.09.65-.26.16-.17.24-.4.24-.71v-2.5h1.41Zm3.58 3.41v1.2h-.72c-.5 0-.9-.12-1.2-.37-.28-.25-.42-.66-.42-1.23v-1.83h-.56v-1.17h.56v-1.13h1.4v1.13h.93v1.17h-.92v1.85c0 .13.03.23.1.3.06.05.17.08.33.08h.5Zm.5-1.11c0-.47.1-.89.27-1.25.18-.35.43-.63.74-.82.3-.2.65-.29 1.03-.29.32 0 .6.07.85.2.24.13.43.3.57.52v-.65h1.4v4.6h-1.4v-.65c-.14.21-.33.39-.58.52-.24.13-.53.2-.85.2-.38 0-.72-.1-1.02-.3a2.1 2.1 0 0 1-.74-.83 2.84 2.84 0 0 1-.26-1.25Zm3.46 0c0-.34-.1-.62-.3-.82a.94.94 0 0 0-.71-.31c-.28 0-.52.1-.72.3-.2.2-.29.48-.29.83s.1.63.3.84c.19.2.43.3.7.3.29 0 .53-.1.72-.3.2-.2.3-.48.3-.83Zm5 1.11v1.2h-.72c-.52 0-.92-.12-1.2-.37-.29-.25-.43-.66-.43-1.23v-1.83h-.56v-1.17h.56v-1.13h1.41v1.13h.92v1.17h-.92v1.85c0 .13.03.23.1.3.06.05.18.08.33.08h.5Zm1.49-3.88a.88.88 0 0 1-.61-.22.73.73 0 0 1-.23-.54c0-.22.07-.4.23-.55a.86.86 0 0 1 .6-.22c.25 0 .45.08.6.22a.7.7 0 0 1 .24.55.7.7 0 0 1-.24.54.84.84 0 0 1-.6.22Zm.7.48v4.6h-1.41v-4.6h1.4Zm3.12 4.67c-.45 0-.86-.1-1.22-.3a2.04 2.04 0 0 1-.85-.82 2.5 2.5 0 0 1-.3-1.25c0-.47.1-.89.3-1.25.21-.36.5-.64.86-.83.37-.2.77-.29 1.22-.29.46 0 .86.1 1.23.29.36.2.64.47.85.83.21.36.32.78.32 1.25s-.11.89-.33 1.25c-.2.36-.5.64-.86.83-.37.19-.77.29-1.22.29Zm0-1.22c.27 0 .5-.1.68-.3.2-.2.3-.48.3-.85s-.1-.65-.29-.85a.88.88 0 0 0-.68-.3c-.27 0-.5.1-.68.3-.18.2-.27.47-.27.85 0 .37.09.65.26.85.18.2.4.3.68.3Zm5.96-3.5c.54 0 .97.17 1.29.53.32.34.48.82.48 1.43V211h-1.4v-2.5c0-.3-.08-.55-.24-.72a.84.84 0 0 0-.64-.25.84.84 0 0 0-.65.25c-.15.17-.24.41-.24.72v2.5h-1.4v-4.6h1.4v.6c.15-.2.34-.36.58-.47.24-.12.52-.18.82-.18Zm2.47 2.34c0-.47.1-.89.27-1.25a1.91 1.91 0 0 1 1.77-1.11c.32 0 .6.07.84.2.25.13.44.3.57.52v-.65h1.41v4.6h-1.4v-.65c-.15.21-.34.39-.59.52-.24.13-.52.2-.85.2-.37 0-.71-.1-1.02-.3a2.1 2.1 0 0 1-.73-.83 2.84 2.84 0 0 1-.27-1.25Zm3.45 0c0-.34-.1-.62-.3-.82a.94.94 0 0 0-.7-.31c-.28 0-.52.1-.72.3-.2.2-.3.48-.3.83s.1.63.3.84c.2.2.44.3.71.3.29 0 .52-.1.72-.3.2-.2.3-.48.3-.83Zm3.84-3.8V211h-1.4v-6.1h1.4Zm-46 16.17c-.42 0-.8-.07-1.13-.2-.34-.15-.6-.35-.81-.62-.2-.27-.3-.6-.32-.97h1.5c.03.21.1.38.23.5.12.1.29.16.5.16.2 0 .37-.05.49-.14a.5.5 0 0 0 .18-.4.47.47 0 0 0-.15-.36c-.1-.1-.21-.17-.35-.23a5.4 5.4 0 0 0-.6-.2 6.54 6.54 0 0 1-.91-.36 1.69 1.69 0 0 1-.61-.5 1.42 1.42 0 0 1-.26-.89c0-.54.2-.96.59-1.26.39-.31.9-.46 1.52-.46.64 0 1.15.15 1.54.46.4.3.6.72.63 1.27h-1.52a.58.58 0 0 0-.21-.44.71.71 0 0 0-.49-.16.6.6 0 0 0-.41.14c-.1.08-.16.21-.16.38 0 .2.1.34.27.44.17.1.45.22.82.34.38.13.68.25.91.36.24.12.44.29.61.5.17.23.26.5.26.86a1.73 1.73 0 0 1-.98 1.54c-.32.16-.7.24-1.14.24Zm2.7-2.36c0-.48.1-.9.3-1.26.2-.35.46-.63.8-.82.36-.2.76-.29 1.21-.29.58 0 1.06.15 1.45.45.39.3.64.73.76 1.28h-1.5c-.12-.35-.37-.53-.73-.53-.26 0-.47.1-.62.31-.15.2-.23.48-.23.86 0 .37.08.66.23.86.15.2.36.3.62.3.36 0 .6-.18.73-.53h1.5a2.12 2.12 0 0 1-2.21 1.74c-.45 0-.85-.1-1.2-.3a2.02 2.02 0 0 1-.82-.82 2.6 2.6 0 0 1-.29-1.25Zm5.99-2.78a.88.88 0 0 1-.61-.22.73.73 0 0 1-.23-.54c0-.22.08-.4.23-.55a.86.86 0 0 1 .6-.22c.25 0 .45.08.6.22a.7.7 0 0 1 .24.55.7.7 0 0 1-.24.54.84.84 0 0 1-.6.22Zm.7.48v4.6h-1.41v-4.6h1.41Zm5.36 2.22c0 .14 0 .27-.02.42h-3.2c.03.28.12.5.28.66.16.15.36.22.6.22.35 0 .6-.15.73-.45h1.5a2.05 2.05 0 0 1-1.17 1.39c-.3.14-.64.2-1.01.2-.45 0-.85-.09-1.2-.28-.36-.2-.63-.47-.83-.83-.2-.35-.3-.77-.3-1.25s.1-.9.3-1.26c.19-.35.46-.63.82-.82.35-.2.75-.29 1.2-.29.45 0 .85.1 1.2.28.34.19.61.45.8.8.2.35.3.75.3 1.21Zm-1.44-.37a.73.73 0 0 0-.25-.57.91.91 0 0 0-.62-.22.9.9 0 0 0-.6.2.92.92 0 0 0-.3.6h1.77Zm5-1.9c.53 0 .96.17 1.28.53.32.34.49.82.49 1.43V221h-1.4v-2.5c0-.3-.09-.55-.25-.72a.84.84 0 0 0-.64-.25.84.84 0 0 0-.64.25c-.16.17-.24.41-.24.72v2.5h-1.41v-4.6h1.4v.6a1.8 1.8 0 0 1 1.4-.66Zm2.46 2.35c0-.48.1-.9.3-1.26.2-.35.46-.63.81-.82.35-.2.75-.29 1.2-.29.58 0 1.06.15 1.45.45.39.3.65.73.77 1.28h-1.5c-.13-.35-.38-.53-.74-.53-.26 0-.47.1-.62.31-.15.2-.23.48-.23.86 0 .37.08.66.23.86.15.2.36.3.62.3.36 0 .6-.18.73-.53h1.5c-.11.54-.37.97-.76 1.27-.4.31-.87.47-1.44.47-.46 0-.86-.1-1.21-.3a2.02 2.02 0 0 1-.82-.82 2.6 2.6 0 0 1-.29-1.25Zm9.62-.08c0 .14 0 .27-.02.42h-3.2a1 1 0 0 0 .27.66c.17.15.37.22.6.22.36 0 .6-.15.74-.45h1.5a2.05 2.05 0 0 1-1.17 1.39c-.3.14-.64.2-1.01.2-.45 0-.86-.09-1.2-.28-.36-.2-.63-.47-.83-.83-.2-.35-.3-.77-.3-1.25s.1-.9.29-1.26c.2-.35.47-.63.82-.82.36-.2.76-.29 1.22-.29.44 0 .84.1 1.19.28.34.19.61.45.8.8.2.35.3.75.3 1.21Zm-1.44-.37a.73.73 0 0 0-.25-.57.91.91 0 0 0-.62-.22.9.9 0 0 0-.6.2.92.92 0 0 0-.3.6h1.77Z"/>
  <path stroke="#0ABD81" stroke-width="5" d="m2.5 26.95 42-24.07 42 24.07v48.1l-42 24.07-42-24.07v-48.1Z"/>
  <path fill="#0ABD81" d="M18.07 38.83v.56h-1.1V43h-.7v-3.61h-1.1v-.56h2.9Zm2.4.81c.26 0 .48.05.68.16.2.11.35.27.46.48.12.21.18.47.18.77V43h-.68v-1.85c0-.3-.07-.52-.22-.68a.78.78 0 0 0-.6-.24.8.8 0 0 0-.62.24c-.15.16-.22.39-.22.68V43h-.69v-4.44h.69v1.52c.11-.14.26-.25.44-.33.18-.07.37-.11.58-.11Zm2.87.53c.1-.16.24-.3.4-.39.17-.1.37-.14.6-.14v.7h-.18a.86.86 0 0 0-.61.21c-.14.14-.2.37-.2.71V43h-.69v-3.3h.68v.47Zm3.06 2.88c-.31 0-.6-.07-.85-.2a1.56 1.56 0 0 1-.6-.6 1.83 1.83 0 0 1-.2-.9c0-.34.07-.64.21-.9.15-.26.35-.46.61-.6.26-.14.54-.21.86-.21.31 0 .6.07.86.21.25.14.45.34.6.6.15.26.22.56.22.9 0 .33-.07.63-.22.89a1.6 1.6 0 0 1-.63.6 1.8 1.8 0 0 1-.86.21Zm0-.59a1 1 0 0 0 .87-.5c.1-.17.14-.38.14-.62s-.04-.44-.14-.6a.93.93 0 0 0-.36-.38 1 1 0 0 0-.5-.13 1 1 0 0 0-.49.13.9.9 0 0 0-.35.38c-.09.16-.13.36-.13.6 0 .36.09.64.27.83.18.2.41.29.69.29Zm5.38-2.77V43h-.68v-.39c-.1.14-.25.24-.43.32a1.5 1.5 0 0 1-1.25-.05 1.2 1.2 0 0 1-.49-.47 1.58 1.58 0 0 1-.17-.77v-1.95h.68v1.85c0 .3.07.52.22.68a.8.8 0 0 0 .6.23.8.8 0 0 0 .61-.23.96.96 0 0 0 .23-.68v-1.85h.68Zm2.24-.05a1.42 1.42 0 0 1 1.14.53v-.48h.7v3.36c0 .3-.07.58-.2.81a1.4 1.4 0 0 1-.56.57c-.24.13-.52.2-.86.2-.45 0-.82-.1-1.12-.32-.3-.2-.46-.49-.5-.85h.68c.05.17.16.31.33.42.17.1.37.16.61.16a.9.9 0 0 0 .67-.25c.17-.17.25-.42.25-.74v-.55a1.42 1.42 0 0 1-1.14.55 1.51 1.51 0 0 1-1.36-.82 2.05 2.05 0 0 1 0-1.78 1.52 1.52 0 0 1 1.36-.81Zm1.14 1.7c0-.22-.04-.42-.14-.59a.97.97 0 0 0-1.35-.38.97.97 0 0 0-.37.37c-.1.17-.14.36-.14.6 0 .22.05.42.14.6.1.16.22.3.37.39a.99.99 0 0 0 .98 0 .97.97 0 0 0 .37-.39c.1-.17.14-.37.14-.6Zm3.3-1.7c.25 0 .48.05.67.16.2.11.36.27.47.48.12.21.18.47.18.77V43h-.68v-1.85a1 1 0 0 0-.22-.68.78.78 0 0 0-.6-.24.8.8 0 0 0-.62.24c-.15.16-.22.39-.22.68V43h-.69v-4.44h.69v1.52c.11-.14.26-.25.43-.33.18-.07.38-.11.6-.11Zm4.55.61v1.83c0 .13.02.22.08.27.06.05.16.08.3.08h.42V43h-.54c-.3 0-.54-.07-.7-.22-.17-.14-.25-.37-.25-.7v-1.83h-.4v-.56h.4v-.82H43v.82h.8v.56H43Zm3.14-.61c.25 0 .48.05.67.16.2.11.36.27.47.48.12.21.17.47.17.77V43h-.67v-1.85c0-.3-.08-.52-.23-.68a.78.78 0 0 0-.6-.24.8.8 0 0 0-.61.24.96.96 0 0 0-.23.68V43h-.68v-4.44h.68v1.52c.12-.14.27-.25.44-.33.18-.07.38-.11.59-.11Zm5.22 1.63c0 .12-.01.23-.03.33h-2.52c.02.27.11.48.3.64a.9.9 0 0 0 .64.24c.37 0 .63-.16.78-.46h.74a1.5 1.5 0 0 1-1.52 1.03c-.32 0-.6-.07-.85-.2a1.57 1.57 0 0 1-.6-.6 1.87 1.87 0 0 1-.2-.9c0-.35.07-.64.2-.9.14-.26.34-.46.58-.6.26-.14.54-.21.87-.21.31 0 .59.07.83.2.25.14.44.33.57.58.14.24.2.53.2.85Zm-.72-.22c0-.25-.1-.45-.27-.6a.97.97 0 0 0-.65-.23.87.87 0 0 0-.6.22.93.93 0 0 0-.3.61h1.82Zm3.63-1.67v1.23h1.44v.55h-1.44v1.28h1.62V43h-2.3v-4.18h2.3v.56h-1.62Zm5.44.31-2.03 4.86H57l.67-1.6-1.3-3.26h.76l.93 2.52.96-2.52h.71Zm3.55 1.58c0 .12-.01.23-.03.33h-2.52a.93.93 0 0 0 .94.88c.37 0 .63-.16.78-.46h.74a1.5 1.5 0 0 1-1.52 1.03c-.32 0-.6-.07-.85-.2a1.57 1.57 0 0 1-.6-.6 1.87 1.87 0 0 1-.2-.9c0-.35.07-.64.2-.9.14-.26.34-.46.59-.6.25-.14.54-.21.86-.21.31 0 .59.07.83.2.25.14.44.33.57.58.14.24.2.53.2.85Zm-.72-.22c0-.25-.1-.45-.27-.6a.97.97 0 0 0-.65-.23.87.87 0 0 0-.6.22.93.93 0 0 0-.3.61h1.82Zm2.59 2c-.26 0-.5-.04-.7-.13-.2-.1-.37-.23-.49-.39a.97.97 0 0 1-.19-.54h.7a.5.5 0 0 0 .2.35c.13.1.28.14.47.14.19 0 .34-.04.44-.11.11-.08.16-.17.16-.29 0-.12-.06-.21-.18-.27a3.2 3.2 0 0 0-.55-.2 5.41 5.41 0 0 1-.61-.2.85.85 0 0 1-.4-.3.78.78 0 0 1-.18-.52.8.8 0 0 1 .16-.48c.1-.14.25-.26.44-.34.2-.09.42-.13.68-.13.37 0 .67.1.9.29.23.19.36.44.37.77h-.68a.49.49 0 0 0-.18-.35.67.67 0 0 0-.44-.13.71.71 0 0 0-.41.1.32.32 0 0 0-.15.27c0 .09.04.16.1.22.06.06.14.1.23.14l.41.13a4 4 0 0 1 .59.2c.16.06.29.16.4.29.11.12.17.3.18.5 0 .2-.06.36-.16.51-.1.15-.25.26-.44.35-.2.08-.41.12-.67.12Zm5 0c-.31 0-.6-.07-.85-.2a1.56 1.56 0 0 1-.6-.6 1.83 1.83 0 0 1-.2-.9c0-.34.07-.64.21-.9.15-.26.35-.46.61-.6.26-.14.54-.21.86-.21.31 0 .6.07.86.21.25.14.45.34.6.6.15.26.22.56.22.9 0 .33-.07.63-.22.89a1.6 1.6 0 0 1-.63.6 1.8 1.8 0 0 1-.86.21Zm0-.59a1 1 0 0 0 .87-.5c.1-.17.14-.38.14-.62s-.04-.44-.14-.6a.93.93 0 0 0-.36-.38 1 1 0 0 0-.5-.13 1 1 0 0 0-.49.13.9.9 0 0 0-.35.38c-.09.16-.13.36-.13.6 0 .36.09.64.27.83.18.2.41.29.69.29Zm3.78-2.2h-.62V43h-.69v-2.75h-.39v-.56h.4v-.23c0-.38.1-.66.3-.83.2-.17.52-.26.95-.26v.57c-.21 0-.36.04-.44.12-.08.07-.13.2-.13.4v.23h.62v.56Zm-46.34 9.77a1.4 1.4 0 0 1 1.11 1.4c0 .48-.16.86-.5 1.15-.34.28-.81.42-1.42.42h-2.7v-5.8h2.61c.6 0 1.05.14 1.38.41.34.27.5.64.5 1.1a1.31 1.31 0 0 1-.98 1.32Zm-2.1-.48h.93c.23 0 .4-.05.53-.15.13-.1.19-.25.19-.45s-.06-.35-.2-.45c-.11-.1-.29-.16-.52-.16h-.92v1.21Zm1.05 2.31a.8.8 0 0 0 .54-.16c.13-.1.2-.26.2-.47a.6.6 0 0 0-.2-.47.81.81 0 0 0-.56-.18h-1.02v1.28h1.04Zm3.7-3.94a.88.88 0 0 1-.62-.22.73.73 0 0 1-.23-.54c0-.22.08-.4.23-.55a.86.86 0 0 1 .61-.22c.25 0 .44.08.6.22a.7.7 0 0 1 .24.55.7.7 0 0 1-.24.54.84.84 0 0 1-.6.22Zm.7.48V53H29.5v-4.6h1.42Zm3.11 4.67c-.45 0-.85-.1-1.22-.3a2.1 2.1 0 0 1-.85-.82 2.5 2.5 0 0 1-.3-1.25c0-.47.1-.89.31-1.25s.5-.64.86-.83c.36-.2.77-.29 1.22-.29.45 0 .86.1 1.22.29a2.21 2.21 0 0 1 1.17 2.08c0 .47-.1.89-.32 1.25-.2.36-.5.63-.87.83-.36.19-.77.29-1.22.29Zm0-1.23c.27 0 .5-.1.69-.3.19-.19.29-.47.29-.84s-.1-.65-.28-.85a.88.88 0 0 0-.68-.3.9.9 0 0 0-.69.3c-.18.2-.27.47-.27.85 0 .37.1.65.27.85.18.2.4.3.67.3Zm4.57-4.95V53h-1.4v-6.1h1.4Zm3.12 6.18c-.45 0-.86-.1-1.22-.3a2.1 2.1 0 0 1-.85-.82 2.5 2.5 0 0 1-.3-1.25c0-.47.1-.89.3-1.25.22-.36.5-.64.86-.83.37-.2.77-.29 1.23-.29.45 0 .85.1 1.22.29.36.2.65.47.85.83.21.36.32.78.32 1.25s-.1.89-.32 1.25c-.21.36-.5.63-.87.83-.36.19-.77.29-1.22.29Zm0-1.23c.27 0 .5-.1.68-.3.2-.19.3-.47.3-.84s-.1-.65-.29-.85a.88.88 0 0 0-.67-.3.9.9 0 0 0-.69.3c-.18.2-.27.47-.27.85 0 .37.09.65.26.85.18.2.41.3.68.3Zm4.9-3.51c.33 0 .61.07.86.2.24.13.43.3.56.52v-.65h1.42V53c0 .42-.09.8-.26 1.14a1.9 1.9 0 0 1-.77.82c-.34.2-.76.3-1.28.3-.68 0-1.23-.15-1.65-.48a1.8 1.8 0 0 1-.73-1.3h1.4c.04.17.14.31.3.41.17.1.38.16.62.16.29 0 .52-.09.7-.26.17-.16.25-.43.25-.8v-.65a1.6 1.6 0 0 1-1.41.73 1.9 1.9 0 0 1-1.77-1.13 2.84 2.84 0 0 1-.26-1.25c0-.47.08-.89.26-1.25a1.9 1.9 0 0 1 1.77-1.11Zm1.42 2.37c0-.35-.1-.63-.3-.84a.94.94 0 0 0-.7-.3c-.28 0-.52.1-.72.3-.2.2-.29.48-.29.83s.1.63.29.84c.2.2.44.3.72.3a.9.9 0 0 0 .7-.3c.2-.2.3-.48.3-.83Zm3.15-2.78a.88.88 0 0 1-.62-.22.73.73 0 0 1-.23-.54c0-.22.08-.4.23-.55a.86.86 0 0 1 .62-.22c.24 0 .44.08.59.22a.7.7 0 0 1 .24.55.7.7 0 0 1-.24.54.84.84 0 0 1-.6.22Zm.7.48V53h-1.41v-4.6h1.4Zm.74 2.3c0-.48.1-.9.29-1.26.2-.35.47-.63.81-.82.36-.2.76-.29 1.2-.29.59 0 1.07.15 1.45.45.4.3.65.73.77 1.28h-1.5c-.13-.35-.37-.53-.74-.53-.25 0-.46.1-.61.31-.16.2-.24.48-.24.86 0 .37.08.66.24.86.15.2.36.3.61.3.37 0 .61-.17.74-.53h1.5c-.12.54-.38.97-.77 1.27-.39.31-.87.47-1.44.47-.45 0-.85-.1-1.2-.3a2.02 2.02 0 0 1-.82-.82 2.6 2.6 0 0 1-.3-1.25Zm5-.01c0-.47.08-.89.26-1.25a1.9 1.9 0 0 1 1.77-1.11c.32 0 .6.07.84.2.25.13.44.3.57.52v-.65h1.41V53h-1.4v-.65c-.15.21-.34.39-.59.52a1.9 1.9 0 0 1-1.87-.1c-.3-.2-.55-.47-.73-.83a2.84 2.84 0 0 1-.27-1.25Zm3.44 0c0-.34-.1-.62-.3-.82a.94.94 0 0 0-.7-.31c-.28 0-.52.1-.72.3-.2.2-.3.48-.3.83s.1.63.3.84c.2.2.44.3.72.3.28 0 .51-.1.7-.3.2-.2.3-.48.3-.83Zm3.84-3.8V53h-1.4v-6.1h1.4ZM30.5 63.07c-.42 0-.8-.07-1.13-.2-.34-.15-.6-.35-.81-.62-.2-.27-.3-.6-.32-.97h1.5c.03.21.1.38.23.5.12.1.29.16.5.16a.8.8 0 0 0 .49-.14.5.5 0 0 0 .18-.4.47.47 0 0 0-.15-.36 1.1 1.1 0 0 0-.35-.23 5.36 5.36 0 0 0-.6-.2 6.51 6.51 0 0 1-.91-.36 1.7 1.7 0 0 1-.61-.5 1.43 1.43 0 0 1-.26-.89c0-.54.2-.96.59-1.26.39-.31.9-.46 1.52-.46.64 0 1.15.15 1.55.46.39.3.6.72.62 1.27h-1.52a.58.58 0 0 0-.21-.44.72.72 0 0 0-.49-.16.6.6 0 0 0-.41.14c-.1.08-.16.21-.16.38 0 .2.1.34.27.44.17.1.45.22.82.34.38.13.68.25.91.36.24.12.44.29.61.5.17.23.26.5.26.86a1.73 1.73 0 0 1-.98 1.54c-.32.16-.7.24-1.14.24Zm2.7-2.36c0-.48.1-.9.3-1.26.2-.35.46-.63.8-.82.36-.2.76-.29 1.21-.29.58 0 1.06.15 1.45.45.39.3.64.73.76 1.28h-1.5c-.12-.35-.37-.53-.73-.53-.26 0-.47.1-.62.31-.15.2-.23.48-.23.86 0 .37.08.66.23.86.15.2.36.3.62.3.36 0 .6-.17.73-.53h1.5a2.12 2.12 0 0 1-2.21 1.74c-.45 0-.85-.1-1.2-.3a2.02 2.02 0 0 1-.82-.82 2.6 2.6 0 0 1-.29-1.25Zm5.99-2.78a.88.88 0 0 1-.61-.22.73.73 0 0 1-.23-.54c0-.22.07-.4.23-.55a.86.86 0 0 1 .6-.22c.25 0 .45.08.6.22a.7.7 0 0 1 .24.55.7.7 0 0 1-.24.54.84.84 0 0 1-.6.22Zm.7.48V63h-1.41v-4.6h1.41Zm5.36 2.22c0 .14 0 .27-.02.42h-3.2c.03.28.12.5.28.66.16.14.36.22.6.22.35 0 .6-.15.73-.45h1.5c-.07.3-.21.58-.42.82-.2.24-.44.43-.75.57-.3.14-.64.2-1.01.2-.45 0-.85-.09-1.2-.28-.36-.2-.63-.47-.83-.83-.2-.36-.3-.77-.3-1.25s.1-.9.3-1.26c.19-.35.46-.63.82-.82.35-.2.75-.29 1.2-.29.45 0 .85.1 1.2.28.34.19.61.45.8.8.2.35.3.75.3 1.21Zm-1.44-.37a.73.73 0 0 0-.25-.57.91.91 0 0 0-.62-.22.9.9 0 0 0-.6.2.93.93 0 0 0-.3.6h1.77Zm5-1.9c.53 0 .96.17 1.28.52.32.35.49.83.49 1.44V63h-1.4v-2.5c0-.3-.09-.55-.25-.72a.84.84 0 0 0-.64-.25.84.84 0 0 0-.64.25c-.16.17-.24.41-.24.72V63H46v-4.6h1.4v.6c.15-.2.34-.36.58-.47.25-.12.52-.18.82-.18Zm2.46 2.35c0-.48.1-.9.3-1.26.2-.35.46-.63.81-.82.35-.2.75-.29 1.2-.29.58 0 1.06.15 1.45.45.39.3.64.73.77 1.28h-1.5c-.13-.35-.38-.53-.74-.53-.26 0-.46.1-.62.31-.15.2-.23.48-.23.86 0 .37.08.66.23.86.16.2.36.3.62.3.36 0 .6-.17.73-.53h1.5a2.12 2.12 0 0 1-2.21 1.74c-.45 0-.85-.1-1.2-.3a2.02 2.02 0 0 1-.82-.82 2.6 2.6 0 0 1-.29-1.25Zm9.62-.08c0 .14 0 .27-.02.42h-3.2c.02.28.12.5.27.66.17.14.37.22.6.22.36 0 .6-.15.74-.45h1.5a2.05 2.05 0 0 1-1.17 1.39c-.3.14-.64.2-1.01.2-.45 0-.86-.09-1.2-.28-.36-.2-.63-.47-.83-.83-.2-.36-.3-.77-.3-1.25s.1-.9.29-1.26c.2-.35.47-.63.82-.82.36-.2.76-.29 1.22-.29.44 0 .84.1 1.18.28.35.19.62.45.81.8.2.35.3.75.3 1.21Zm-1.44-.37a.73.73 0 0 0-.25-.57.91.91 0 0 0-.62-.22.91.91 0 0 0-.6.2.93.93 0 0 0-.3.6h1.77Z"/>
  <path fill="#212121" d="M165.95 136.14a.23.23 0 0 1 .14-.42c.07 0 .11.03.15.05.23.18.48.29.78.29.31 0 .5-.15.5-.35v-.01c0-.2-.11-.31-.63-.43-.6-.15-.94-.32-.94-.84v-.01c0-.48.4-.82.96-.82.35 0 .64.1.9.27.05.03.1.1.1.2 0 .12-.1.22-.23.22a.24.24 0 0 1-.13-.03 1.17 1.17 0 0 0-.65-.22c-.29 0-.46.15-.46.34 0 .22.13.32.68.44.6.15.9.36.9.83 0 .53-.42.85-1 .85-.39 0-.75-.12-1.07-.36Zm2.53-.27v-1.12h-.08a.2.2 0 0 1-.2-.2c0-.12.09-.22.2-.22h.08v-.36a.25.25 0 0 1 .49 0v.37h.38c.12 0 .22.09.22.2 0 .12-.1.21-.22.21h-.38v1.04c0 .2.1.27.26.27l.12-.01c.11 0 .2.08.2.2a.2.2 0 0 1-.12.19c-.1.03-.2.05-.33.05-.36 0-.62-.16-.62-.62Zm1.42-1.31c0-.14.1-.25.24-.25.14 0 .24.1.24.25v.21c.12-.26.33-.46.54-.46.15 0 .24.1.24.24 0 .13-.09.21-.2.23-.34.06-.58.33-.58.83v.63c0 .13-.1.24-.24.24a.24.24 0 0 1-.24-.24v-1.68Zm3.4 1.68c0 .13-.1.24-.24.24a.24.24 0 0 1-.25-.24v-.11a.77.77 0 0 1-.66.37c-.48 0-.76-.32-.76-.81v-1.13a.24.24 0 1 1 .49 0v.98c0 .33.16.51.45.51.28 0 .48-.19.48-.52v-.97c0-.14.11-.25.25-.25.13 0 .24.1.24.25v1.68Zm.35-.84c0-.6.47-1.1 1.1-1.1.34 0 .57.1.75.26.03.02.08.09.08.16 0 .13-.1.23-.23.23a.25.25 0 0 1-.14-.05.68.68 0 0 0-.46-.18c-.35 0-.61.3-.61.67 0 .39.26.69.64.69a.7.7 0 0 0 .47-.2.22.22 0 0 1 .13-.04c.12 0 .21.1.21.21a.2.2 0 0 1-.07.15c-.19.18-.42.3-.77.3-.63 0-1.1-.49-1.1-1.1Zm2.38.47v-1.12h-.08a.2.2 0 0 1-.21-.2c0-.12.09-.22.2-.22h.09v-.36c0-.13.1-.24.24-.24.13 0 .24.11.24.24v.37h.39c.11 0 .2.09.2.2a.2.2 0 0 1-.2.21h-.39v1.04c0 .2.1.27.26.27l.13-.01c.1 0 .2.08.2.2 0 .09-.06.16-.13.19-.1.03-.2.05-.33.05-.36 0-.61-.16-.61-.62Zm3.29.37c0 .13-.1.24-.24.24a.24.24 0 0 1-.25-.24v-.11a.77.77 0 0 1-.66.37c-.48 0-.75-.32-.75-.81v-1.13c0-.14.1-.25.24-.25.13 0 .24.1.24.25v.98c0 .33.17.51.46.51.28 0 .47-.19.47-.52v-.97c0-.14.11-.25.25-.25.13 0 .24.1.24.25v1.68Zm.48-1.68c0-.14.1-.25.23-.25.14 0 .25.1.25.25v.21c.11-.26.32-.46.53-.46.16 0 .24.1.24.24 0 .13-.08.21-.19.23-.35.06-.58.33-.58.83v.63c0 .13-.11.24-.25.24a.24.24 0 0 1-.24-.24v-1.68Zm1.27 1.28c0-.46.36-.69.88-.69.24 0 .4.04.57.1v-.06c0-.3-.19-.46-.53-.46-.18 0-.34.03-.47.08a.27.27 0 0 1-.08.01.2.2 0 0 1-.2-.2c0-.08.06-.16.13-.19.2-.08.4-.12.69-.12.31 0 .55.08.7.23.16.16.23.38.23.66v1.04c0 .14-.1.24-.24.24-.14 0-.24-.1-.24-.2v-.09a.86.86 0 0 1-.69.31c-.4 0-.75-.23-.75-.66Zm1.46-.15v-.14a1.35 1.35 0 0 0-.49-.09c-.3 0-.5.14-.5.36 0 .21.19.33.42.33.32 0 .57-.19.57-.46Zm.93-1.94c0-.14.1-.25.24-.25.14 0 .25.11.25.25v2.49c0 .13-.11.24-.25.24a.24.24 0 0 1-.24-.24v-2.5Zm2.1.15c0-.15.11-.25.25-.25h1.02c.32 0 .57.08.73.24.13.13.2.28.2.47 0 .34-.2.52-.41.63.33.12.56.3.56.69 0 .5-.42.78-1.04.78h-1.06a.25.25 0 0 1-.25-.25v-2.32Zm1.17.93c.31 0 .53-.13.53-.38v-.01c0-.22-.18-.36-.5-.36h-.71v.75h.68Zm.14 1.19c.34 0 .54-.13.54-.39 0-.24-.19-.38-.57-.38h-.79v.77h.82Zm1.39-2.26c0-.14.12-.23.28-.23.16 0 .28.1.28.23v.03c0 .14-.12.24-.28.24-.16 0-.28-.1-.28-.24v-.03Zm.04.8c0-.14.1-.25.24-.25.14 0 .25.1.25.25v1.68c0 .13-.11.24-.25.24a.24.24 0 0 1-.24-.24v-1.68Zm.86.84c0-.6.49-1.1 1.14-1.1.65 0 1.13.48 1.13 1.1 0 .6-.48 1.1-1.14 1.1a1.1 1.1 0 0 1-1.13-1.1Zm1.78 0c0-.37-.27-.68-.65-.68-.39 0-.64.3-.64.67 0 .38.27.69.65.69.4 0 .64-.3.64-.67Zm.84-1.64c0-.14.12-.23.27-.23.16 0 .28.1.28.23v.03c0 .14-.12.24-.28.24-.15 0-.28-.1-.28-.24v-.03Zm.03.8c0-.14.1-.25.24-.25.14 0 .25.1.25.25v1.68c0 .13-.11.24-.25.24a.24.24 0 0 1-.24-.24v-1.68Zm.99 0c0-.14.1-.25.23-.25.14 0 .25.1.25.25v.1c.14-.2.33-.37.66-.37.48 0 .76.32.76.81v1.14c0 .13-.1.24-.24.24a.24.24 0 0 1-.25-.24v-.99c0-.33-.16-.52-.45-.52-.28 0-.48.2-.48.53v.98c0 .13-.1.24-.25.24a.24.24 0 0 1-.24-.24v-1.68Zm2.45.19h-.08a.2.2 0 0 1-.2-.2c0-.11.09-.2.2-.2h.09v-.16c0-.23.06-.4.17-.52a.65.65 0 0 1 .48-.17c.1 0 .17 0 .24.02.09.01.17.1.17.2 0 .11-.1.2-.2.2h-.1c-.2 0-.29.1-.29.32v.11h.38c.12 0 .2.09.2.2a.2.2 0 0 1-.2.2h-.37v1.49a.24.24 0 0 1-.49 0v-1.49Zm1.11.65c0-.6.48-1.1 1.13-1.1.66 0 1.13.48 1.13 1.1 0 .6-.48 1.1-1.13 1.1a1.1 1.1 0 0 1-1.13-1.1Zm1.78 0c0-.37-.27-.68-.65-.68-.4 0-.64.3-.64.67 0 .38.27.69.65.69.39 0 .64-.3.64-.67Zm.84-.84c0-.14.1-.25.24-.25.14 0 .25.1.25.25v.21c.1-.26.32-.46.53-.46.15 0 .24.1.24.24 0 .13-.08.21-.2.23-.34.06-.57.33-.57.83v.63c0 .13-.11.24-.25.24a.24.24 0 0 1-.24-.24v-1.68Zm1.52 0c0-.14.1-.25.24-.25.14 0 .25.1.25.25v.1c.13-.2.32-.37.64-.37.3 0 .53.15.64.38.17-.23.4-.38.72-.38.46 0 .74.3.74.81v1.14c0 .13-.1.24-.24.24a.24.24 0 0 1-.25-.24v-.99c0-.34-.16-.52-.43-.52-.26 0-.45.19-.45.53v.98c0 .13-.11.24-.24.24a.24.24 0 0 1-.25-.24v-1c0-.32-.16-.5-.43-.5s-.45.2-.45.52v.98c0 .13-.11.24-.25.24a.24.24 0 0 1-.24-.24v-1.68Zm3.54 1.28c0-.46.36-.69.88-.69.23 0 .4.04.57.1v-.06c0-.3-.19-.46-.53-.46-.19 0-.34.03-.47.08a.27.27 0 0 1-.08.01.2.2 0 0 1-.2-.2c0-.08.06-.16.13-.19.2-.08.4-.12.69-.12.31 0 .55.08.7.23.16.16.23.38.23.66v1.04c0 .14-.1.24-.24.24-.14 0-.24-.1-.24-.2v-.09a.87.87 0 0 1-.69.31c-.4 0-.75-.23-.75-.66Zm1.46-.15v-.14a1.35 1.35 0 0 0-.49-.09c-.31 0-.5.14-.5.36 0 .21.19.33.42.33.32 0 .56-.19.56-.46Zm.98.18v-1.12h-.08a.2.2 0 0 1-.2-.2c0-.12.08-.22.2-.22h.08v-.36a.25.25 0 0 1 .49 0v.37h.38a.2.2 0 0 1 .21.2c0 .12-.1.21-.21.21h-.38v1.04c0 .2.1.27.26.27l.12-.01c.1 0 .2.08.2.2 0 .09-.06.16-.12.19-.1.03-.2.05-.34.05-.36 0-.6-.16-.6-.62Zm1.4-2.11c0-.14.13-.23.28-.23.16 0 .28.1.28.23v.03c0 .14-.12.24-.28.24-.15 0-.28-.1-.28-.24v-.03Zm.04.8c0-.14.1-.25.24-.25.14 0 .25.1.25.25v1.68c0 .13-.11.24-.25.24a.24.24 0 0 1-.24-.24v-1.68Zm.87.84c0-.6.46-1.1 1.1-1.1.34 0 .57.1.75.26a.22.22 0 0 1-.15.39.25.25 0 0 1-.15-.05.68.68 0 0 0-.45-.18c-.36 0-.62.3-.62.67 0 .39.26.69.64.69a.7.7 0 0 0 .47-.2.22.22 0 0 1 .13-.04c.12 0 .21.1.21.21a.2.2 0 0 1-.06.15c-.2.18-.42.3-.78.3-.63 0-1.1-.49-1.1-1.1Zm2.19.84a.18.18 0 0 1-.1-.17c0-.1.09-.2.2-.2a.2.2 0 0 1 .1.04c.21.13.43.2.62.2.2 0 .33-.09.33-.23 0-.17-.23-.23-.48-.3-.3-.1-.66-.22-.66-.63 0-.4.33-.65.76-.65.22 0 .46.06.66.17.07.04.12.1.12.19a.2.2 0 0 1-.2.2c-.04 0-.06-.02-.1-.03a1.17 1.17 0 0 0-.5-.15c-.19 0-.3.1-.3.21v.01c0 .16.24.22.49.3.3.1.66.24.66.62 0 .46-.35.68-.8.68-.26 0-.56-.09-.8-.26Zm2.88-.4c0-.46.36-.69.88-.69.23 0 .4.04.57.1v-.06c0-.3-.19-.46-.53-.46-.19 0-.34.03-.47.08a.27.27 0 0 1-.08.01.2.2 0 0 1-.2-.2c0-.08.06-.16.13-.19.2-.08.4-.12.68-.12.32 0 .56.08.7.23a.9.9 0 0 1 .24.66v1.04c0 .14-.1.24-.24.24-.14 0-.24-.1-.24-.2v-.09a.86.86 0 0 1-.69.31c-.4 0-.75-.23-.75-.66Zm1.45-.15v-.14a1.35 1.35 0 0 0-.48-.09c-.31 0-.5.14-.5.36 0 .21.18.33.42.33.32 0 .56-.19.56-.46Zm.91-1.13c0-.14.1-.25.24-.25.14 0 .25.1.25.25v.1c.13-.2.33-.37.66-.37.48 0 .76.32.76.81v1.14c0 .13-.1.24-.25.24a.24.24 0 0 1-.24-.24v-.99c0-.33-.16-.52-.45-.52-.29 0-.48.2-.48.53v.98c0 .13-.11.24-.25.24a.24.24 0 0 1-.24-.24v-1.68Zm4.44 1.68c0 .13-.1.24-.24.24a.24.24 0 0 1-.25-.24v-.14a.85.85 0 0 1-.72.4c-.5 0-.99-.4-.99-1.1 0-.71.48-1.1.99-1.1.35 0 .57.16.72.36v-.91c0-.14.11-.25.25-.25.13 0 .24.1.24.25v2.49Zm-1.7-.85c0 .42.28.69.6.69.33 0 .62-.28.62-.68 0-.42-.29-.69-.61-.69-.34 0-.61.26-.61.68Zm-53.06 4.49c0-.8.6-1.46 1.45-1.46.44 0 .72.13.97.31.05.04.1.11.1.2 0 .14-.11.24-.25.24a.24.24 0 0 1-.15-.05c-.2-.15-.4-.25-.67-.25-.53 0-.93.44-.93 1 0 .55.4 1 .93 1 .3 0 .5-.1.7-.27a.22.22 0 0 1 .15-.06c.13 0 .24.1.24.23 0 .08-.04.14-.09.18-.26.23-.56.38-1.02.38-.82 0-1.43-.64-1.43-1.45Zm2.74.35v-.01c0-.6.49-1.1 1.14-1.1.65 0 1.13.49 1.13 1.1 0 .6-.49 1.1-1.14 1.1a1.1 1.1 0 0 1-1.13-1.1Zm1.78 0v-.01c0-.37-.27-.68-.65-.68-.4 0-.64.3-.64.67v.01c0 .37.27.68.65.68.39 0 .64-.3.64-.67Zm.84-.85c0-.14.1-.25.24-.25.14 0 .25.11.25.25v.1c.13-.2.32-.37.64-.37.31 0 .53.15.64.38.17-.23.4-.38.72-.38.46 0 .74.3.74.81v1.14c0 .13-.1.24-.24.24a.24.24 0 0 1-.25-.24v-.99c0-.34-.15-.52-.43-.52-.26 0-.45.19-.45.53v.98c0 .13-.11.24-.24.24a.24.24 0 0 1-.25-.24v-1c0-.32-.16-.5-.43-.5s-.45.2-.45.52v.98c0 .13-.11.24-.25.24a.24.24 0 0 1-.24-.24v-1.68Zm3.68 0c0-.14.1-.25.24-.25.14 0 .25.11.25.25v.13c.15-.22.38-.4.72-.4.5 0 .99.4.99 1.1v.01c0 .7-.49 1.1-.99 1.1a.87.87 0 0 1-.72-.37v.75c0 .13-.11.24-.25.24a.24.24 0 0 1-.24-.24v-2.32Zm1.7.84c0-.42-.28-.69-.6-.69-.33 0-.63.28-.63.68v.01c0 .4.3.68.62.68.34 0 .61-.26.61-.68Zm2.74.84c0 .13-.1.24-.24.24a.24.24 0 0 1-.24-.24v-.11a.77.77 0 0 1-.67.37c-.48 0-.75-.32-.75-.81v-1.13a.24.24 0 1 1 .48 0v.98c0 .33.17.51.46.51.28 0 .48-.19.48-.52v-.97c0-.14.1-.25.24-.25.13 0 .25.11.25.25v1.68Zm.57-.37v-1.12h-.08a.2.2 0 0 1-.2-.2.2.2 0 0 1 .2-.21h.08v-.37a.25.25 0 0 1 .49 0v.37h.38a.2.2 0 0 1 .21.2.2.2 0 0 1-.2.21h-.4v1.04c0 .2.1.27.27.27l.12-.01c.11 0 .2.09.2.2a.2.2 0 0 1-.12.19c-.1.03-.2.05-.34.05-.35 0-.6-.15-.6-.62Zm1.27-.02v-.01c0-.46.36-.69.88-.69.24 0 .4.04.57.1V140c0-.3-.18-.46-.52-.46-.19 0-.34.03-.48.08a.27.27 0 0 1-.07.02.2.2 0 0 1-.2-.2c0-.1.05-.17.13-.2.2-.07.4-.12.68-.12.32 0 .55.08.7.24.16.15.23.37.23.65v1.04c0 .14-.1.24-.23.24-.15 0-.24-.1-.24-.2V141a.87.87 0 0 1-.7.31c-.4 0-.75-.23-.75-.65Zm1.46-.16v-.14a1.35 1.35 0 0 0-.48-.09c-.32 0-.5.14-.5.36 0 .21.18.33.41.33.32 0 .57-.19.57-.46Zm.98.18v-1.12h-.07a.2.2 0 0 1-.21-.2.2.2 0 0 1 .2-.21h.08v-.37a.25.25 0 0 1 .49 0v.37h.38c.12 0 .22.09.22.2 0 .12-.1.21-.22.21h-.38v1.04c0 .2.1.27.26.27l.12-.01c.11 0 .2.09.2.2a.2.2 0 0 1-.12.19c-.1.03-.2.05-.33.05-.36 0-.62-.15-.62-.62Zm1.41-2.1c0-.15.12-.24.28-.24.15 0 .28.1.28.24v.02c0 .14-.13.24-.28.24-.16 0-.28-.1-.28-.24v-.02Zm.04.79c0-.14.1-.25.24-.25.13 0 .24.11.24.25v1.68c0 .13-.1.24-.24.24a.24.24 0 0 1-.24-.24v-1.68Zm.86.85v-.01c0-.6.48-1.1 1.13-1.1.66 0 1.13.49 1.13 1.1 0 .6-.48 1.1-1.13 1.1a1.1 1.1 0 0 1-1.13-1.1Zm1.78 0v-.01c0-.37-.27-.68-.65-.68-.4 0-.64.3-.64.67v.01c0 .37.27.68.64.68.4 0 .65-.3.65-.67Zm.84-.85c0-.14.1-.25.24-.25.14 0 .25.11.25.25v.1c.13-.2.33-.37.66-.37.48 0 .76.32.76.81v1.14c0 .13-.1.24-.25.24a.24.24 0 0 1-.24-.24v-.99c0-.33-.17-.52-.46-.52-.28 0-.47.2-.47.53v.98c0 .13-.11.24-.25.24a.24.24 0 0 1-.24-.24v-1.68Zm2.21 1.29v-.01c0-.46.36-.69.88-.69.24 0 .4.04.57.1V140c0-.3-.19-.46-.53-.46-.18 0-.34.03-.47.08a.27.27 0 0 1-.07.02.2.2 0 0 1-.21-.2c0-.1.06-.17.13-.2.2-.07.4-.12.69-.12.31 0 .55.08.7.24.16.15.23.37.23.65v1.04c0 .14-.1.24-.24.24-.14 0-.23-.1-.23-.2V141a.87.87 0 0 1-.7.31c-.4 0-.75-.23-.75-.65Zm1.46-.16v-.14a1.35 1.35 0 0 0-.48-.09c-.32 0-.5.14-.5.36 0 .21.18.33.41.33.32 0 .57-.19.57-.46Zm.94-1.94c0-.14.1-.25.23-.25.14 0 .25.11.25.25v2.49c0 .13-.11.24-.25.24a.24.24 0 0 1-.24-.24v-2.5Zm2.1.14c0-.14.1-.25.24-.25h1.02c.32 0 .57.1.73.25.13.13.2.28.2.47 0 .35-.2.53-.41.63.33.12.56.3.56.69 0 .5-.41.78-1.04.78h-1.06a.24.24 0 0 1-.25-.25v-2.32Zm1.16.94c.31 0 .53-.12.53-.38 0-.23-.18-.37-.5-.37h-.7v.75h.67Zm.14 1.19c.34 0 .55-.13.55-.39 0-.24-.2-.38-.59-.38h-.78v.77h.82Zm1.4-2.25c0-.15.11-.24.27-.24.16 0 .28.1.28.24v.02c0 .14-.12.24-.28.24-.16 0-.28-.1-.28-.24v-.02Zm.03.79c0-.14.1-.25.24-.25.14 0 .25.11.25.25v1.68c0 .13-.11.24-.25.24a.24.24 0 0 1-.24-.24v-1.68Zm.87.85v-.01c0-.6.48-1.1 1.13-1.1.65 0 1.13.49 1.13 1.1 0 .6-.48 1.1-1.14 1.1a1.1 1.1 0 0 1-1.13-1.1Zm1.77 0v-.01c0-.37-.27-.68-.65-.68-.39 0-.64.3-.64.67v.01c0 .37.27.68.65.68.4 0 .64-.3.64-.67Zm.87-1.66c0-.14.1-.25.24-.25.14 0 .25.11.25.25v2.49c0 .13-.11.24-.25.24a.24.24 0 0 1-.24-.24v-2.5Zm.86 1.66v-.01c0-.6.49-1.1 1.14-1.1.65 0 1.13.49 1.13 1.1 0 .6-.48 1.1-1.14 1.1a1.1 1.1 0 0 1-1.12-1.1Zm1.78 0v-.01c0-.37-.27-.68-.65-.68-.39 0-.64.3-.64.67v.01c0 .37.27.68.65.68.4 0 .64-.3.64-.67Zm.97 1.51a.2.2 0 0 1-.14-.2.2.2 0 0 1 .3-.17c.19.1.4.16.65.16.43 0 .67-.22.67-.65v-.16a.89.89 0 0 1-.75.39.95.95 0 0 1-.96-1 .96.96 0 0 1 1.71-.64v-.1c0-.13.1-.24.24-.24.13 0 .24.11.24.25v1.46c0 .36-.1.63-.27.8-.19.2-.49.29-.87.29-.3 0-.56-.07-.82-.2Zm1.48-1.63c0-.35-.28-.59-.62-.59-.34 0-.6.23-.6.58v.01c0 .35.27.58.6.58.34 0 .62-.23.62-.58Zm1 1.76a.2.2 0 0 1-.15-.2c0-.12.1-.2.2-.2.04 0 .06 0 .08.02l.17.02c.15 0 .22-.06.3-.22l.02-.05-.79-1.75a.35.35 0 0 1-.03-.12c0-.14.1-.24.25-.24.12 0 .19.07.23.19l.57 1.4.53-1.4c.05-.1.11-.19.24-.19s.23.1.23.23l-.02.12-.78 1.86c-.18.43-.37.6-.71.6a.86.86 0 0 1-.34-.07Zm3.3-3.18a.25.25 0 1 1 .49 0v2.14h1.28a.22.22 0 1 1 0 .45h-1.52a.25.25 0 0 1-.25-.25v-2.34Zm2.15 1.98v-.01c0-.46.36-.69.88-.69.23 0 .4.04.57.1V140c0-.3-.19-.46-.53-.46-.19 0-.34.03-.47.08a.27.27 0 0 1-.08.02.2.2 0 0 1-.2-.2c0-.1.06-.17.13-.2.2-.07.4-.12.68-.12.32 0 .56.08.7.24.16.15.24.37.24.65v1.04c0 .14-.1.24-.24.24-.14 0-.24-.1-.24-.2V141a.87.87 0 0 1-.69.31c-.4 0-.75-.23-.75-.65Zm1.45-.16v-.14a1.36 1.36 0 0 0-.48-.09c-.31 0-.5.14-.5.36 0 .21.18.33.42.33.32 0 .56-.19.56-.46Zm.91-1.94c0-.14.1-.25.24-.25.14 0 .25.1.25.25v.94c.15-.22.37-.4.72-.4.5 0 .98.4.98 1.1v.01c0 .7-.48 1.1-.98 1.1a.87.87 0 0 1-.72-.37v.1c0 .14-.11.25-.25.25a.24.24 0 0 1-.24-.24v-2.5Zm1.7 1.65c0-.42-.28-.69-.6-.69-.34 0-.63.28-.63.68v.01c0 .4.3.68.62.68.34 0 .61-.26.61-.68Zm-50.76-10.8a1.27 1.27 0 0 1 .77-2.31c.36 0 .6.13.79.25a5.3 5.3 0 0 0 3.2 1.13c1.14 0 1.82-.45 1.82-1.18v-.03c0-.7-.43-1.06-2.53-1.6-2.53-.64-4.16-1.34-4.16-3.83v-.04c0-2.27 1.83-3.77 4.4-3.77 1.52 0 2.84.39 3.97 1.1.3.19.61.56.61 1.1 0 .71-.57 1.27-1.29 1.27a1.3 1.3 0 0 1-.7-.2 5.23 5.23 0 0 0-2.63-.84c-1.06 0-1.62.48-1.62 1.1v.03c0 .82.54 1.1 2.71 1.65 2.55.66 3.98 1.57 3.98 3.76v.03c0 2.5-1.9 3.89-4.6 3.89a8.1 8.1 0 0 1-4.72-1.5Zm10.82-9.82c0-.78.62-1.38 1.39-1.38h4.44c1.44 0 2.57.39 3.28 1.1.58.58.87 1.28.87 2.14v.03c0 1.42-.76 2.2-1.66 2.7 1.46.56 2.35 1.4 2.35 3.09v.03c0 2.3-1.86 3.44-4.7 3.44h-4.58c-.77 0-1.38-.61-1.38-1.38v-9.78Zm5.24 3.68c1.22 0 2-.4 2-1.32v-.04c0-.82-.65-1.29-1.82-1.29h-2.72v2.65h2.54Zm.74 5.05c1.22 0 1.95-.43 1.95-1.36v-.03c0-.85-.63-1.37-2.04-1.37h-3.2v2.76h3.29Zm5.52-3.81v-.04a6.37 6.37 0 0 1 6.54-6.48c1.88 0 3.16.5 4.2 1.27.28.22.53.61.53 1.1 0 .75-.6 1.34-1.36 1.34-.38 0-.63-.15-.82-.27a4.13 4.13 0 0 0-2.57-.9c-2.11 0-3.64 1.76-3.64 3.9v.04c0 2.15 1.5 3.94 3.64 3.94 1.17 0 1.94-.36 2.73-.98a1.3 1.3 0 0 1 2.11.97c0 .42-.21.76-.46.98a6.3 6.3 0 0 1-4.47 1.57 6.33 6.33 0 0 1-6.43-6.44Zm12.89-4.92c0-.78.6-1.38 1.38-1.38h4.44c1.44 0 2.57.39 3.28 1.1.58.58.87 1.28.87 2.14v.03c0 1.42-.76 2.2-1.65 2.7 1.45.56 2.34 1.4 2.34 3.09v.03c0 2.3-1.86 3.44-4.7 3.44h-4.58c-.77 0-1.38-.61-1.38-1.38v-9.78Zm5.23 3.68c1.22 0 2-.4 2-1.32v-.04c0-.82-.65-1.29-1.82-1.29h-2.72v2.65h2.54Zm.74 5.05c1.22 0 1.95-.43 1.95-1.36v-.03c0-.85-.63-1.37-2.04-1.37h-3.2v2.76h3.29Z"/>
  <path fill="url(#a)" d="M146.46 119.55c.2-.31.61-.41.92-.22.32.2.42.62.22.93l-.2.33a.67.67 0 0 1-1.15-.71l.2-.33Zm13.16 18.7a.67.67 0 0 1-1.15-.71c2.01-3.22.5-7.8-3.39-10.2l-1.54-.96c-4.5-2.8-6.22-8.21-3.82-12.06a.67.67 0 1 1 1.14.71c-2 3.22-.48 7.8 3.4 10.2l1.53.96c4.52 2.8 6.23 8.22 3.83 12.07Zm-10.74-14.9c.31.2.41.62.21.93l-.94 1.5a.68.68 0 0 1-1.14-.7l.94-1.5c.2-.33.61-.42.93-.23Zm2.17 2.63c.31.2.4.62.21.93l-1.61 2.59a.67.67 0 1 1-1.15-.71l1.62-2.59c.2-.32.61-.41.93-.22Zm2.75 1.7c.32.19.42.6.22.92l-2.2 3.51a.67.67 0 0 1-1.14-.7l2.2-3.52c.2-.32.6-.41.93-.22Zm2.19 2.6c.31.2.4.62.21.93l-1.61 2.6a.67.67 0 0 1-1.15-.72l1.62-2.59c.2-.31.6-.41.93-.21Zm1.49 3.72c.32.2.41.6.22.92l-.94 1.5a.67.67 0 0 1-1.15-.7l.94-1.5c.2-.32.61-.42.93-.22Zm.6 5.3c.31.2.41.6.21.92l-.2.33a.68.68 0 0 1-.93.22.67.67 0 0 1-.22-.93l.2-.33a.7.7 0 0 1 .94-.22Zm-3.1 6.38a.67.67 0 0 1-1.14-.7c2-3.23.49-7.8-3.4-10.22l-1.53-.95c-4.51-2.8-6.23-8.22-3.82-12.07.2-.31.61-.4.93-.21.31.2.4.61.21.92-2 3.22-.49 7.8 3.4 10.21l1.53.96c4.51 2.8 6.22 8.21 3.82 12.06Z"/>
  <path fill="url(#b)" d="M158.08 139.3c.31.2.41.6.21.92l-.2.33a.68.68 0 0 1-.93.22.67.67 0 0 1-.22-.93l.2-.33a.7.7 0 0 1 .94-.22Z"/>
  <path fill="url(#c)" d="m156.2 131.21-1.61 2.6a.67.67 0 0 1-1.15-.72l1.62-2.59a.68.68 0 0 1 1.14.71Z"/>
  <path fill="url(#d)" d="m157.7 134.92-.94 1.5a.67.67 0 0 1-1.15-.7l.94-1.5a.67.67 0 0 1 1.15.7Z"/>
  <path fill="url(#e)" d="M154.05 145.9a.67.67 0 0 1-.21-.93c2-3.22.49-7.8-3.4-10.2l-1.53-.96c-4.51-2.8-6.23-8.22-3.82-12.07.2-.31.61-.4.93-.21.31.2.4.61.21.92-2 3.22-.49 7.8 3.4 10.21l1.53.96c4.51 2.8 6.22 8.21 3.82 12.06a.67.67 0 0 1-.93.22Z"/>
  <path fill="url(#f)" d="M147.38 119.33c.32.2.42.62.22.93l-.2.33a.67.67 0 0 1-1.15-.71l.2-.33a.7.7 0 0 1 .94-.22Z"/>
  <path fill="url(#g)" d="M158.69 138.47a.67.67 0 0 1-.22-.92c2.01-3.23.5-7.8-3.39-10.22l-1.54-.95c-4.5-2.8-6.22-8.21-3.82-12.06a.67.67 0 1 1 1.14.71c-2 3.22-.48 7.8 3.4 10.2l1.53.96c4.52 2.8 6.23 8.22 3.83 12.07a.68.68 0 0 1-.93.21Z"/>
  <path fill="url(#h)" d="m149.1 124.28-.95 1.5a.68.68 0 0 1-1.14-.7l.94-1.5a.68.68 0 0 1 1.14.7Z"/>
  <path fill="url(#i)" d="m154.02 128.6-2.2 3.51a.67.67 0 0 1-1.14-.7l2.2-3.52a.67.67 0 0 1 1.14.7Z"/>
  <path fill="url(#j)" d="m151.26 126.91-1.61 2.59a.67.67 0 1 1-1.15-.71l1.62-2.59c.2-.32.61-.41.93-.22.31.2.4.62.21.93Z"/>
  <defs>
    <linearGradient id="a" x1="144" x2="160.65" y1="121.17" y2="137.74" gradientUnits="userSpaceOnUse">
      <stop stop-color="#0ABD81"/>
      <stop offset="1" stop-color="#0ABBC7"/>
    </linearGradient>
    <linearGradient id="b" x1="144" x2="160.65" y1="121.17" y2="137.74" gradientUnits="userSpaceOnUse">
      <stop stop-color="#0ABD81"/>
      <stop offset="1" stop-color="#0ABBC7"/>
    </linearGradient>
    <linearGradient id="c" x1="144" x2="160.65" y1="121.17" y2="137.74" gradientUnits="userSpaceOnUse">
      <stop stop-color="#0ABD81"/>
      <stop offset="1" stop-color="#0ABBC7"/>
    </linearGradient>
    <linearGradient id="d" x1="144" x2="160.65" y1="121.17" y2="137.74" gradientUnits="userSpaceOnUse">
      <stop stop-color="#0ABD81"/>
      <stop offset="1" stop-color="#0ABBC7"/>
    </linearGradient>
    <linearGradient id="e" x1="144" x2="160.65" y1="121.17" y2="137.74" gradientUnits="userSpaceOnUse">
      <stop stop-color="#0ABD81"/>
      <stop offset="1" stop-color="#0ABBC7"/>
    </linearGradient>
    <linearGradient id="f" x1="144" x2="160.65" y1="121.17" y2="137.74" gradientUnits="userSpaceOnUse">
      <stop stop-color="#0ABD81"/>
      <stop offset="1" stop-color="#0ABBC7"/>
    </linearGradient>
    <linearGradient id="g" x1="144" x2="160.65" y1="121.17" y2="137.74" gradientUnits="userSpaceOnUse">
      <stop stop-color="#0ABD81"/>
      <stop offset="1" stop-color="#0ABBC7"/>
    </linearGradient>
    <linearGradient id="h" x1="144" x2="160.65" y1="121.17" y2="137.74" gradientUnits="userSpaceOnUse">
      <stop stop-color="#0ABD81"/>
      <stop offset="1" stop-color="#0ABBC7"/>
    </linearGradient>
    <linearGradient id="i" x1="144" x2="160.65" y1="121.17" y2="137.74" gradientUnits="userSpaceOnUse">
      <stop stop-color="#0ABD81"/>
      <stop offset="1" stop-color="#0ABBC7"/>
    </linearGradient>
    <linearGradient id="j" x1="144" x2="160.65" y1="121.17" y2="137.74" gradientUnits="userSpaceOnUse">
      <stop stop-color="#0ABD81"/>
      <stop offset="1" stop-color="#0ABBC7"/>
    </linearGradient>
  </defs>
</svg>
