<?xml version="1.0" encoding="UTF-8"?>
<svg xmlns="http://www.w3.org/2000/svg" xmlns:xlink="http://www.w3.org/1999/xlink" width="315pt" height="251.999989pt" viewBox="0 0 315 251.999989" version="1.2">
<defs>
<clipPath id="clip1">
  <path d="M 148.9375 169.632812 L 168.175781 169.632812 L 168.175781 206.175781 L 148.9375 206.175781 Z M 148.9375 169.632812 "/>
</clipPath>
<clipPath id="clip2">
  <path d="M 196.484375 115.429688 L 239.015625 115.429688 L 239.015625 137.742188 L 196.484375 137.742188 Z M 196.484375 115.429688 "/>
</clipPath>
</defs>
<g id="surface1">
<rect x="0" y="0" width="315" height="251.999989" style="fill:rgb(100%,100%,100%);fill-opacity:1;stroke:none;"/>
<rect x="0" y="0" width="315" height="251.999989" style="fill:rgb(100%,100%,100%);fill-opacity:1;stroke:none;"/>
<path style=" stroke:none;fill-rule:nonzero;fill:rgb(89.7995%,22.349548%,22.349548%);fill-opacity:1;" d="M 166.140625 50.75 C 162.289062 45.722656 154.675781 45.746094 150.855469 50.8125 C 148.804688 53.527344 148.441406 57.160156 149.714844 60.3125 L 151.515625 64.777344 C 153.5 69.695312 154.683594 74.890625 155.03125 80.164062 C 155.148438 81.996094 156.679688 83.414062 158.519531 83.414062 C 160.363281 83.414062 161.890625 81.996094 162.011719 80.164062 C 162.355469 74.890625 163.542969 69.695312 165.527344 64.777344 L 167.414062 60.101562 C 168.675781 56.980469 168.191406 53.425781 166.140625 50.75 "/>
<path style=" stroke:none;fill-rule:nonzero;fill:rgb(89.7995%,22.349548%,22.349548%);fill-opacity:1;" d="M 96.289062 81.746094 C 89.992188 82.554688 86.203125 89.128906 88.699219 94.960938 C 90.039062 98.085938 93.011719 100.214844 96.390625 100.695312 L 101.175781 101.371094 C 106.441406 102.121094 111.550781 103.695312 116.3125 106.035156 C 117.960938 106.847656 119.960938 106.238281 120.882812 104.648438 C 121.804688 103.0625 121.332031 101.03125 119.800781 100.011719 C 115.386719 97.078125 111.464844 93.460938 108.179688 89.289062 L 105.058594 85.324219 C 102.972656 82.675781 99.640625 81.316406 96.289062 81.746094 "/>
<path style=" stroke:none;fill-rule:nonzero;fill:rgb(89.7995%,22.349548%,22.349548%);fill-opacity:1;" d="M 88.671875 158.292969 C 86.230469 164.128906 90.054688 170.683594 96.371094 171.445312 C 99.757812 171.855469 103.097656 170.355469 105.203125 167.679688 L 108.183594 163.890625 C 111.46875 159.722656 115.390625 156.105469 119.804688 153.167969 C 121.335938 152.148438 121.808594 150.121094 120.886719 148.53125 C 119.964844 146.945312 117.964844 146.335938 116.316406 147.148438 C 111.554688 149.484375 106.445312 151.0625 101.179688 151.808594 L 96.167969 152.519531 C 92.824219 152.992188 89.976562 155.1875 88.671875 158.292969 "/>
<g clip-path="url(#clip1)" clip-rule="nonzero">
<path style=" stroke:none;fill-rule:nonzero;fill:rgb(89.7995%,22.349548%,22.349548%);fill-opacity:1;" d="M 150.902344 202.425781 C 154.753906 207.449219 162.363281 207.429688 166.1875 202.363281 C 168.234375 199.644531 168.601562 196.015625 167.328125 192.863281 L 165.527344 188.398438 C 163.539062 183.480469 162.355469 178.285156 162.011719 173.011719 C 161.890625 171.179688 160.363281 169.757812 158.519531 169.757812 C 156.679688 169.757812 155.148438 171.179688 155.03125 173.011719 C 154.683594 178.285156 153.5 183.480469 151.515625 188.398438 L 149.628906 193.074219 C 148.367188 196.195312 148.851562 199.75 150.902344 202.425781 "/>
</g>
<path style=" stroke:none;fill-rule:nonzero;fill:rgb(89.7995%,22.349548%,22.349548%);fill-opacity:1;" d="M 220.753906 171.429688 C 227.046875 170.621094 230.835938 164.042969 228.34375 158.214844 C 227.003906 155.089844 224.03125 152.957031 220.652344 152.480469 L 215.867188 151.800781 C 210.597656 151.054688 205.492188 149.480469 200.730469 147.140625 C 199.078125 146.328125 197.078125 146.9375 196.160156 148.523438 C 195.238281 150.113281 195.707031 152.144531 197.242188 153.160156 C 201.65625 156.097656 205.578125 159.714844 208.863281 163.886719 L 211.984375 167.851562 C 214.070312 170.5 217.402344 171.859375 220.753906 171.429688 "/>
<path style=" stroke:none;fill-rule:nonzero;fill:rgb(89.7995%,22.349548%,22.349548%);fill-opacity:1;" d="M 228.367188 94.882812 L 228.367188 94.878906 C 230.8125 89.046875 226.988281 82.492188 220.671875 81.730469 C 217.285156 81.320312 213.945312 82.820312 211.839844 85.496094 L 208.859375 89.28125 C 205.574219 93.453125 201.652344 97.070312 197.234375 100.007812 C 195.703125 101.023438 195.234375 103.054688 196.15625 104.644531 C 197.074219 106.230469 199.074219 106.839844 200.726562 106.027344 C 205.488281 103.6875 210.59375 102.113281 215.863281 101.367188 L 220.875 100.65625 C 224.21875 100.183594 227.066406 97.988281 228.367188 94.882812 "/>
<path style=" stroke:none;fill-rule:nonzero;fill:rgb(75.689697%,5.879211%,23.919678%);fill-opacity:1;" d="M 214.175781 126.585938 C 214.175781 121 213.34375 115.605469 211.800781 110.519531 C 211.125 108.304688 211.152344 105.9375 211.972656 103.769531 C 213.441406 99.878906 211.945312 95.316406 208.132812 93.125 C 207.242188 92.613281 206.300781 92.273438 205.34375 92.101562 C 203.003906 91.671875 200.847656 90.519531 199.222656 88.789062 C 191.785156 80.84375 182.03125 75.082031 171.035156 72.566406 C 168.8125 72.058594 166.839844 70.800781 165.386719 69.050781 C 162.734375 65.863281 158.035156 64.875 154.230469 67.0625 C 153.28125 67.609375 152.476562 68.304688 151.824219 69.101562 C 150.382812 70.867188 148.332031 72.039062 146.105469 72.546875 C 135.128906 75.035156 125.390625 80.757812 117.949219 88.652344 C 116.339844 90.355469 114.242188 91.507812 111.929688 91.898438 C 107.839844 92.585938 104.617188 96.132812 104.617188 100.527344 C 104.617188 101.546875 104.792969 102.523438 105.117188 103.433594 C 105.910156 105.660156 105.988281 108.09375 105.292969 110.351562 C 103.714844 115.484375 102.867188 120.9375 102.867188 126.585938 C 102.867188 132.175781 103.699219 137.570312 105.242188 142.65625 C 105.914062 144.871094 105.886719 147.238281 105.070312 149.40625 C 103.601562 153.296875 105.097656 157.859375 108.90625 160.050781 C 109.796875 160.5625 110.742188 160.898438 111.695312 161.074219 C 114.039062 161.503906 116.195312 162.65625 117.820312 164.386719 C 125.257812 172.328125 135.007812 178.09375 146.007812 180.609375 C 148.230469 181.117188 150.203125 182.375 151.65625 184.125 C 154.304688 187.3125 159.007812 188.300781 162.8125 186.113281 C 163.761719 185.566406 164.566406 184.871094 165.21875 184.074219 C 166.660156 182.308594 168.710938 181.132812 170.9375 180.628906 C 181.910156 178.136719 191.648438 172.417969 199.09375 164.523438 C 200.699219 162.820312 202.796875 161.664062 205.109375 161.277344 C 209.203125 160.589844 212.425781 157.035156 212.425781 152.648438 C 212.425781 151.628906 212.25 150.652344 211.925781 149.742188 C 211.132812 147.515625 211.054688 145.082031 211.75 142.824219 C 213.324219 137.6875 214.175781 132.238281 214.175781 126.585938 "/>
<path style=" stroke:none;fill-rule:nonzero;fill:rgb(93.728638%,25.878906%,25.878906%);fill-opacity:1;" d="M 185.871094 116.515625 C 185.871094 133.625 171.945312 147.492188 154.769531 147.492188 C 137.59375 147.492188 123.667969 133.625 123.667969 116.515625 C 123.667969 99.40625 137.59375 85.539062 154.769531 85.539062 C 171.945312 85.539062 185.871094 99.40625 185.871094 116.515625 "/>
<path style=" stroke:none;fill-rule:nonzero;fill:rgb(93.728638%,25.878906%,25.878906%);fill-opacity:1;" d="M 190.050781 141.464844 C 190.050781 153.433594 180.308594 163.132812 168.292969 163.132812 C 156.277344 163.132812 146.539062 153.433594 146.539062 141.464844 C 146.539062 129.496094 156.277344 119.796875 168.292969 119.796875 C 180.308594 119.796875 190.050781 129.496094 190.050781 141.464844 "/>
<path style=" stroke:none;fill-rule:nonzero;fill:rgb(100%,54.899597%,37.249756%);fill-opacity:1;" d="M 170.59375 112.367188 C 170.59375 119.015625 165.179688 124.410156 158.5 124.410156 C 151.824219 124.410156 146.410156 119.015625 146.410156 112.367188 C 146.410156 105.714844 151.824219 100.320312 158.5 100.320312 C 165.179688 100.320312 170.59375 105.714844 170.59375 112.367188 "/>
<path style=" stroke:none;fill-rule:nonzero;fill:rgb(100%,54.899597%,37.249756%);fill-opacity:1;" d="M 157.636719 142.136719 C 157.636719 145.957031 154.527344 149.050781 150.695312 149.050781 C 146.859375 149.050781 143.75 145.957031 143.75 142.136719 C 143.75 138.316406 146.859375 135.21875 150.695312 135.21875 C 154.527344 135.21875 157.636719 138.316406 157.636719 142.136719 "/>
<path style=" stroke:none;fill-rule:nonzero;fill:rgb(52.938843%,4.708862%,27.839661%);fill-opacity:1;" d="M 189 90.75 C 189 96.035156 184.695312 100.320312 179.390625 100.320312 C 174.082031 100.320312 169.78125 96.035156 169.78125 90.75 C 169.78125 85.464844 174.082031 81.179688 179.390625 81.179688 C 184.695312 81.179688 189 85.464844 189 90.75 "/>
<path style=" stroke:none;fill-rule:nonzero;fill:rgb(52.938843%,4.708862%,27.839661%);fill-opacity:1;" d="M 142.597656 82.382812 C 147.195312 85.023438 148.769531 90.878906 146.113281 95.453125 C 143.460938 100.03125 137.585938 101.601562 132.988281 98.957031 C 128.390625 96.316406 126.816406 90.460938 129.472656 85.882812 C 132.125 81.304688 138 79.738281 142.597656 82.382812 "/>
<path style=" stroke:none;fill-rule:nonzero;fill:rgb(52.938843%,4.708862%,27.839661%);fill-opacity:1;" d="M 112.121094 118.21875 C 116.714844 115.574219 122.59375 117.144531 125.246094 121.722656 C 127.902344 126.300781 126.324219 132.152344 121.730469 134.796875 C 117.132812 137.4375 111.257812 135.871094 108.601562 131.292969 C 105.949219 126.714844 107.523438 120.859375 112.121094 118.21875 "/>
<path style=" stroke:none;fill-rule:nonzero;fill:rgb(52.938843%,4.708862%,27.839661%);fill-opacity:1;" d="M 128.042969 162.425781 C 128.042969 157.140625 132.347656 152.855469 137.652344 152.855469 C 142.960938 152.855469 147.261719 157.140625 147.261719 162.425781 C 147.261719 167.710938 142.960938 171.996094 137.652344 171.996094 C 132.347656 171.996094 128.042969 167.710938 128.042969 162.425781 "/>
<path style=" stroke:none;fill-rule:nonzero;fill:rgb(52.938843%,4.708862%,27.839661%);fill-opacity:1;" d="M 174.445312 170.792969 C 169.847656 168.152344 168.273438 162.296875 170.925781 157.71875 C 173.582031 153.144531 179.457031 151.574219 184.054688 154.21875 C 188.648438 156.859375 190.222656 162.710938 187.570312 167.289062 C 184.917969 171.867188 179.039062 173.4375 174.445312 170.792969 "/>
<path style=" stroke:none;fill-rule:nonzero;fill:rgb(52.938843%,4.708862%,27.839661%);fill-opacity:1;" d="M 204.921875 134.957031 C 200.324219 137.601562 194.449219 136.03125 191.792969 131.453125 C 189.140625 126.875 190.714844 121.023438 195.3125 118.378906 C 199.90625 115.738281 205.785156 117.304688 208.4375 121.882812 C 211.09375 126.460938 209.515625 132.3125 204.921875 134.957031 "/>
<path style=" stroke:none;fill-rule:nonzero;fill:rgb(100%,42.749023%,17.248535%);fill-opacity:1;" d="M 127.992188 56.28125 C 121.15625 53.4375 113.476562 57.882812 112.585938 65.222656 C 112.105469 69.160156 113.863281 73.042969 116.996094 75.488281 L 121.433594 78.953125 C 126.320312 82.769531 130.558594 87.332031 134 92.460938 C 135.191406 94.242188 137.570312 94.789062 139.429688 93.71875 C 141.292969 92.648438 142.003906 90.324219 141.054688 88.402344 C 138.3125 82.871094 136.46875 76.933594 135.59375 70.8125 L 134.761719 64.988281 C 134.203125 61.101562 131.632812 57.792969 127.992188 56.28125 "/>
<path style=" stroke:none;fill-rule:nonzero;fill:rgb(100%,42.749023%,17.248535%);fill-opacity:1;" d="M 82.148438 117.738281 C 76.261719 122.214844 76.285156 131.058594 82.21875 135.5 C 85.40625 137.882812 89.660156 138.304688 93.351562 136.828125 L 98.585938 134.734375 C 104.347656 132.425781 110.429688 131.050781 116.609375 130.648438 C 118.757812 130.507812 120.421875 128.730469 120.421875 126.589844 C 120.421875 124.449219 118.757812 122.671875 116.609375 122.535156 C 110.429688 122.132812 104.347656 120.757812 98.585938 118.449219 L 93.105469 116.257812 C 89.445312 114.792969 85.28125 115.355469 82.148438 117.738281 "/>
<path style=" stroke:none;fill-rule:nonzero;fill:rgb(100%,42.749023%,17.248535%);fill-opacity:1;" d="M 112.601562 188.046875 C 113.550781 195.363281 121.253906 199.765625 128.085938 196.863281 C 131.746094 195.308594 134.242188 191.851562 134.804688 187.925781 L 135.597656 182.367188 C 136.472656 176.242188 138.320312 170.308594 141.0625 164.777344 C 142.011719 162.855469 141.300781 160.53125 139.4375 159.460938 C 137.578125 158.390625 135.199219 158.9375 134.007812 160.71875 C 130.566406 165.847656 126.328125 170.410156 121.441406 174.226562 L 116.792969 177.855469 C 113.691406 180.277344 112.097656 184.152344 112.601562 188.046875 "/>
<path style=" stroke:none;fill-rule:nonzero;fill:rgb(100%,42.749023%,17.248535%);fill-opacity:1;" d="M 189.046875 196.894531 C 195.882812 199.734375 203.5625 195.292969 204.457031 187.953125 C 204.9375 184.015625 203.179688 180.132812 200.042969 177.6875 L 195.609375 174.222656 C 190.722656 170.40625 186.480469 165.84375 183.042969 160.714844 C 181.847656 158.933594 179.472656 158.386719 177.609375 159.457031 C 175.75 160.527344 175.035156 162.851562 175.988281 164.773438 C 178.726562 170.304688 180.574219 176.238281 181.449219 182.363281 L 182.28125 188.183594 C 182.835938 192.074219 185.40625 195.382812 189.046875 196.894531 "/>
<g clip-path="url(#clip2)" clip-rule="nonzero">
<path style=" stroke:none;fill-rule:nonzero;fill:rgb(100%,42.749023%,17.248535%);fill-opacity:1;" d="M 234.894531 135.4375 C 240.78125 130.960938 240.757812 122.117188 234.820312 117.675781 C 231.636719 115.292969 227.382812 114.867188 223.6875 116.347656 L 218.457031 118.441406 C 212.695312 120.75 206.609375 122.125 200.429688 122.527344 C 198.285156 122.664062 196.621094 124.441406 196.621094 126.582031 C 196.621094 128.726562 198.285156 130.5 200.429688 130.640625 C 206.609375 131.042969 212.695312 132.417969 218.457031 134.726562 L 223.9375 136.917969 C 227.59375 138.382812 231.757812 137.820312 234.894531 135.4375 "/>
</g>
<path style=" stroke:none;fill-rule:nonzero;fill:rgb(100%,42.749023%,17.248535%);fill-opacity:1;" d="M 204.4375 65.128906 C 203.488281 57.8125 195.785156 53.410156 188.957031 56.308594 C 185.292969 57.867188 182.796875 61.324219 182.238281 65.25 L 181.441406 70.808594 C 180.566406 76.929688 178.722656 82.867188 175.980469 88.398438 C 175.027344 90.320312 175.742188 92.644531 177.605469 93.714844 C 179.464844 94.785156 181.84375 94.238281 183.035156 92.457031 C 186.476562 87.324219 190.714844 82.765625 195.601562 78.949219 L 200.246094 75.320312 C 203.351562 72.898438 204.941406 69.023438 204.4375 65.128906 "/>
</g>
</svg>
